%TF.GenerationSoftware,KiCad,Pcbnew,(6.0.10)*%
%TF.CreationDate,2023-01-10T16:59:13+01:00*%
%TF.ProjectId,rp2040_keyboard,72703230-3430-45f6-9b65-79626f617264,rev?*%
%TF.SameCoordinates,Original*%
%TF.FileFunction,Soldermask,Top*%
%TF.FilePolarity,Negative*%
%FSLAX46Y46*%
G04 Gerber Fmt 4.6, Leading zero omitted, Abs format (unit mm)*
G04 Created by KiCad (PCBNEW (6.0.10)) date 2023-01-10 16:59:13*
%MOMM*%
%LPD*%
G01*
G04 APERTURE LIST*
G04 Aperture macros list*
%AMRoundRect*
0 Rectangle with rounded corners*
0 $1 Rounding radius*
0 $2 $3 $4 $5 $6 $7 $8 $9 X,Y pos of 4 corners*
0 Add a 4 corners polygon primitive as box body*
4,1,4,$2,$3,$4,$5,$6,$7,$8,$9,$2,$3,0*
0 Add four circle primitives for the rounded corners*
1,1,$1+$1,$2,$3*
1,1,$1+$1,$4,$5*
1,1,$1+$1,$6,$7*
1,1,$1+$1,$8,$9*
0 Add four rect primitives between the rounded corners*
20,1,$1+$1,$2,$3,$4,$5,0*
20,1,$1+$1,$4,$5,$6,$7,0*
20,1,$1+$1,$6,$7,$8,$9,0*
20,1,$1+$1,$8,$9,$2,$3,0*%
G04 Aperture macros list end*
%ADD10C,1.750000*%
%ADD11C,4.000000*%
%ADD12C,2.500000*%
%ADD13R,0.700000X1.500000*%
%ADD14R,1.000000X0.800000*%
%ADD15C,0.900000*%
%ADD16C,2.700000*%
%ADD17RoundRect,0.135000X0.185000X-0.135000X0.185000X0.135000X-0.185000X0.135000X-0.185000X-0.135000X0*%
%ADD18R,0.900000X1.200000*%
%ADD19RoundRect,0.140000X0.140000X0.170000X-0.140000X0.170000X-0.140000X-0.170000X0.140000X-0.170000X0*%
%ADD20RoundRect,0.140000X0.170000X-0.140000X0.170000X0.140000X-0.170000X0.140000X-0.170000X-0.140000X0*%
%ADD21RoundRect,0.225000X-0.225000X-0.250000X0.225000X-0.250000X0.225000X0.250000X-0.225000X0.250000X0*%
%ADD22R,1.500000X2.000000*%
%ADD23R,3.800000X2.000000*%
%ADD24RoundRect,0.140000X-0.140000X-0.170000X0.140000X-0.170000X0.140000X0.170000X-0.140000X0.170000X0*%
%ADD25RoundRect,0.135000X-0.135000X-0.185000X0.135000X-0.185000X0.135000X0.185000X-0.135000X0.185000X0*%
%ADD26C,0.650000*%
%ADD27R,0.300000X1.150000*%
%ADD28O,1.000000X2.100000*%
%ADD29O,1.000000X1.600000*%
%ADD30RoundRect,0.140000X-0.170000X0.140000X-0.170000X-0.140000X0.170000X-0.140000X0.170000X0.140000X0*%
%ADD31RoundRect,0.135000X0.135000X0.185000X-0.135000X0.185000X-0.135000X-0.185000X0.135000X-0.185000X0*%
%ADD32RoundRect,0.150000X-0.650000X-0.150000X0.650000X-0.150000X0.650000X0.150000X-0.650000X0.150000X0*%
%ADD33RoundRect,0.225000X-0.250000X0.225000X-0.250000X-0.225000X0.250000X-0.225000X0.250000X0.225000X0*%
%ADD34RoundRect,0.050000X-0.387500X-0.050000X0.387500X-0.050000X0.387500X0.050000X-0.387500X0.050000X0*%
%ADD35RoundRect,0.050000X-0.050000X-0.387500X0.050000X-0.387500X0.050000X0.387500X-0.050000X0.387500X0*%
%ADD36R,5.600000X5.600000*%
%ADD37R,1.400000X1.200000*%
G04 APERTURE END LIST*
D10*
%TO.C,SW1*%
X111506000Y-59690000D03*
D11*
X116586000Y-59690000D03*
D10*
X121666000Y-59690000D03*
D12*
X120396000Y-57150000D03*
X114046000Y-54610000D03*
%TD*%
D13*
%TO.C,SW13*%
X54138000Y-47091600D03*
X55638000Y-47091600D03*
X58638000Y-47091600D03*
D14*
X52738000Y-44231600D03*
X60038000Y-46441600D03*
X52738000Y-46441600D03*
D15*
X57888000Y-45331600D03*
X54888000Y-45331600D03*
D14*
X60038000Y-44231600D03*
%TD*%
D16*
%TO.C,H4*%
X48768000Y-109829600D03*
%TD*%
%TO.C,H3*%
X127508000Y-109829600D03*
%TD*%
%TO.C,H2*%
X127508000Y-47167800D03*
%TD*%
%TO.C,H1*%
X48869600Y-47244000D03*
%TD*%
D17*
%TO.C,R1*%
X89174000Y-65583000D03*
X89174000Y-64563000D03*
%TD*%
D18*
%TO.C,D2*%
X95098600Y-51130200D03*
X98398600Y-51130200D03*
%TD*%
D19*
%TO.C,C12*%
X87094000Y-81534000D03*
X86134000Y-81534000D03*
%TD*%
%TO.C,C1*%
X88138000Y-65024000D03*
X87178000Y-65024000D03*
%TD*%
%TO.C,C5*%
X83030000Y-74066400D03*
X82070000Y-74066400D03*
%TD*%
D20*
%TO.C,C8*%
X89916000Y-78712000D03*
X89916000Y-77752000D03*
%TD*%
D21*
%TO.C,C14*%
X105905000Y-60452000D03*
X107455000Y-60452000D03*
%TD*%
D22*
%TO.C,U2*%
X108726000Y-62890000D03*
X106426000Y-62890000D03*
D23*
X106426000Y-69190000D03*
D22*
X104126000Y-62890000D03*
%TD*%
D18*
%TO.C,D5*%
X110719600Y-87503000D03*
X114019600Y-87503000D03*
%TD*%
%TO.C,D6*%
X98297000Y-87503000D03*
X94997000Y-87503000D03*
%TD*%
%TO.C,D8*%
X60171600Y-87223600D03*
X56871600Y-87223600D03*
%TD*%
D17*
%TO.C,R2*%
X90424000Y-65583000D03*
X90424000Y-64563000D03*
%TD*%
D24*
%TO.C,C10*%
X91242000Y-66576000D03*
X92202000Y-66576000D03*
%TD*%
D18*
%TO.C,D1*%
X110795800Y-51231800D03*
X114095800Y-51231800D03*
%TD*%
D25*
%TO.C,R7*%
X56669400Y-49403000D03*
X55649400Y-49403000D03*
%TD*%
%TO.C,R4*%
X90629200Y-53492400D03*
X89609200Y-53492400D03*
%TD*%
D26*
%TO.C,J1*%
X90240000Y-50331600D03*
X84460000Y-50331600D03*
D27*
X90700000Y-51396600D03*
X89900000Y-51396600D03*
X88600000Y-51396600D03*
X87600000Y-51396600D03*
X87100000Y-51396600D03*
X86100000Y-51396600D03*
X84800000Y-51396600D03*
X84000000Y-51396600D03*
X84300000Y-51396600D03*
X85100000Y-51396600D03*
X85600000Y-51396600D03*
X86600000Y-51396600D03*
X88100000Y-51396600D03*
X89100000Y-51396600D03*
X89600000Y-51396600D03*
X90400000Y-51396600D03*
D28*
X91670000Y-50831600D03*
D29*
X83030000Y-46651600D03*
D28*
X83030000Y-50831600D03*
D29*
X91670000Y-46651600D03*
%TD*%
D30*
%TO.C,C4*%
X92710000Y-73332400D03*
X92710000Y-74292400D03*
%TD*%
D24*
%TO.C,C16*%
X73434000Y-45974000D03*
X74394000Y-45974000D03*
%TD*%
%TO.C,C11*%
X92202000Y-67668200D03*
X91242000Y-67668200D03*
%TD*%
%TO.C,C3*%
X92611000Y-69951600D03*
X93571000Y-69951600D03*
%TD*%
D18*
%TO.C,D10*%
X98195400Y-106603800D03*
X94895400Y-106603800D03*
%TD*%
D30*
%TO.C,C2*%
X88468200Y-78712000D03*
X88468200Y-77752000D03*
%TD*%
D31*
%TO.C,R5*%
X84275200Y-53492400D03*
X85295200Y-53492400D03*
%TD*%
D18*
%TO.C,D12*%
X60197000Y-106527600D03*
X56897000Y-106527600D03*
%TD*%
D32*
%TO.C,U3*%
X66600000Y-47395000D03*
X66600000Y-48665000D03*
X66600000Y-49935000D03*
X66600000Y-51205000D03*
X73800000Y-51205000D03*
X73800000Y-49935000D03*
X73800000Y-48665000D03*
X73800000Y-47395000D03*
%TD*%
D24*
%TO.C,C13*%
X89182000Y-81534000D03*
X90142000Y-81534000D03*
%TD*%
D18*
%TO.C,D4*%
X60222400Y-70383400D03*
X56922400Y-70383400D03*
%TD*%
D33*
%TO.C,C15*%
X101346000Y-69329000D03*
X101346000Y-70879000D03*
%TD*%
D34*
%TO.C,U1*%
X84512500Y-69748000D03*
X84512500Y-70148000D03*
X84512500Y-70548000D03*
X84512500Y-70948000D03*
X84512500Y-71348000D03*
X84512500Y-71748000D03*
X84512500Y-72148000D03*
X84512500Y-72548000D03*
X84512500Y-72948000D03*
X84512500Y-73348000D03*
X84512500Y-73748000D03*
X84512500Y-74148000D03*
X84512500Y-74548000D03*
X84512500Y-74948000D03*
D35*
X85350000Y-75785500D03*
X85750000Y-75785500D03*
X86150000Y-75785500D03*
X86550000Y-75785500D03*
X86950000Y-75785500D03*
X87350000Y-75785500D03*
X87750000Y-75785500D03*
X88150000Y-75785500D03*
X88550000Y-75785500D03*
X88950000Y-75785500D03*
X89350000Y-75785500D03*
X89750000Y-75785500D03*
X90150000Y-75785500D03*
X90550000Y-75785500D03*
D34*
X91387500Y-74948000D03*
X91387500Y-74548000D03*
X91387500Y-74148000D03*
X91387500Y-73748000D03*
X91387500Y-73348000D03*
X91387500Y-72948000D03*
X91387500Y-72548000D03*
X91387500Y-72148000D03*
X91387500Y-71748000D03*
X91387500Y-71348000D03*
X91387500Y-70948000D03*
X91387500Y-70548000D03*
X91387500Y-70148000D03*
X91387500Y-69748000D03*
D35*
X90550000Y-68910500D03*
X90150000Y-68910500D03*
X89750000Y-68910500D03*
X89350000Y-68910500D03*
X88950000Y-68910500D03*
X88550000Y-68910500D03*
X88150000Y-68910500D03*
X87750000Y-68910500D03*
X87350000Y-68910500D03*
X86950000Y-68910500D03*
X86550000Y-68910500D03*
X86150000Y-68910500D03*
X85750000Y-68910500D03*
X85350000Y-68910500D03*
D36*
X87950000Y-72348000D03*
%TD*%
D19*
%TO.C,C9*%
X85824000Y-65024000D03*
X84864000Y-65024000D03*
%TD*%
D31*
%TO.C,R3*%
X92176600Y-77089000D03*
X91156600Y-77089000D03*
%TD*%
D24*
%TO.C,C7*%
X92611000Y-68884800D03*
X93571000Y-68884800D03*
%TD*%
D18*
%TO.C,D9*%
X110719600Y-106603800D03*
X114019600Y-106603800D03*
%TD*%
%TO.C,D11*%
X72670400Y-106603800D03*
X75970400Y-106603800D03*
%TD*%
D19*
%TO.C,C6*%
X83131600Y-69494400D03*
X82171600Y-69494400D03*
%TD*%
D18*
%TO.C,D3*%
X67641200Y-70434200D03*
X70941200Y-70434200D03*
%TD*%
%TO.C,D7*%
X79196200Y-87249000D03*
X75896200Y-87249000D03*
%TD*%
D37*
%TO.C,Y1*%
X87038000Y-88734000D03*
X89238000Y-88734000D03*
X89238000Y-87034000D03*
X87038000Y-87034000D03*
%TD*%
D11*
%TO.C,SW7*%
X78486000Y-78740000D03*
D10*
X73406000Y-78740000D03*
X83566000Y-78740000D03*
D12*
X82296000Y-76200000D03*
X75946000Y-73660000D03*
%TD*%
D10*
%TO.C,SW5*%
X121666000Y-78740000D03*
D11*
X116586000Y-78740000D03*
D10*
X111506000Y-78740000D03*
D12*
X120396000Y-76200000D03*
X114046000Y-73660000D03*
%TD*%
D11*
%TO.C,SW2*%
X97536000Y-59690000D03*
D10*
X92456000Y-59690000D03*
X102616000Y-59690000D03*
D12*
X101346000Y-57150000D03*
X94996000Y-54610000D03*
%TD*%
D10*
%TO.C,SW6*%
X102616000Y-78740000D03*
D11*
X97536000Y-78740000D03*
D10*
X92456000Y-78740000D03*
D12*
X101346000Y-76200000D03*
X94996000Y-73660000D03*
%TD*%
D10*
%TO.C,SW10*%
X92456000Y-97790000D03*
D11*
X97536000Y-97790000D03*
D10*
X102616000Y-97790000D03*
D12*
X101346000Y-95250000D03*
X94996000Y-92710000D03*
%TD*%
D11*
%TO.C,SW8*%
X59436000Y-78740000D03*
D10*
X54356000Y-78740000D03*
X64516000Y-78740000D03*
D12*
X63246000Y-76200000D03*
X56896000Y-73660000D03*
%TD*%
D10*
%TO.C,SW11*%
X83566000Y-97790000D03*
X73406000Y-97790000D03*
D11*
X78486000Y-97790000D03*
D12*
X82296000Y-95250000D03*
X75946000Y-92710000D03*
%TD*%
D10*
%TO.C,SW9*%
X121666000Y-97790000D03*
X111506000Y-97790000D03*
D11*
X116586000Y-97790000D03*
D12*
X120396000Y-95250000D03*
X114046000Y-92710000D03*
%TD*%
D10*
%TO.C,SW12*%
X54356000Y-97790000D03*
X64516000Y-97790000D03*
D11*
X59436000Y-97790000D03*
D12*
X63246000Y-95250000D03*
X56896000Y-92710000D03*
%TD*%
%TO.C,SW4*%
X56896000Y-54610000D03*
X63246000Y-57150000D03*
D10*
X54356000Y-59690000D03*
D11*
X59436000Y-59690000D03*
D10*
X64516000Y-59690000D03*
%TD*%
%TO.C,SW3*%
X83566000Y-59690000D03*
D11*
X78486000Y-59690000D03*
D10*
X73406000Y-59690000D03*
D12*
X82296000Y-57150000D03*
X75946000Y-54610000D03*
%TD*%
M02*
