M48
; DRILL file {KiCad (6.0.10)} date Tue Jan 10 16:59:10 2023
; FORMAT={-:-/ absolute / metric / decimal}
; #@! TF.CreationDate,2023-01-10T16:59:10+01:00
; #@! TF.GenerationSoftware,Kicad,Pcbnew,(6.0.10)
; #@! TF.FileFunction,MixedPlating,1,2
FMAT,2
METRIC
; #@! TA.AperFunction,Plated,PTH,ViaDrill
T1C0.300
; #@! TA.AperFunction,Plated,PTH,ViaDrill
T2C0.400
; #@! TA.AperFunction,Plated,PTH,ComponentDrill
T3C0.600
; #@! TA.AperFunction,Plated,PTH,ComponentDrill
T4C1.500
; #@! TA.AperFunction,NonPlated,NPTH,ComponentDrill
T5C0.650
; #@! TA.AperFunction,NonPlated,NPTH,ComponentDrill
T6C0.900
; #@! TA.AperFunction,NonPlated,NPTH,ComponentDrill
T7C1.750
; #@! TA.AperFunction,NonPlated,NPTH,ComponentDrill
T8C2.700
; #@! TA.AperFunction,NonPlated,NPTH,ComponentDrill
T9C4.000
%
G90
G05
T1
X54.153Y-49.174
X89.457Y-76.964
X105.893Y-49.936
X105.893Y-52.07
X108.85Y-60.0
X108.85Y-61.0
X109.88Y-61.366
T2
X62.052Y-70.383
X62.217Y-87.287
X64.16Y-87.3
X64.465Y-70.383
X64.567Y-51.232
X77.292Y-65.075
X77.292Y-69.875
X78.486Y-72.974
X79.68Y-56.871
X80.174Y-69.346
X80.518Y-74.168
X80.797Y-91.77
X81.204Y-70.002
X81.432Y-64.948
X82.55Y-61.366
X83.109Y-70.248
X83.16Y-72.974
X83.591Y-91.77
X85.319Y-61.366
X85.319Y-62.916
X87.046Y-65.989
X87.173Y-61.366
X87.909Y-79.629
X90.325Y-66.672
X91.364Y-79.959
X91.923Y-65.202
X92.507Y-88.875
X92.507Y-91.389
X92.596Y-70.727
X92.991Y-77.089
X93.116Y-72.847
X93.142Y-65.888
X93.751Y-75.794
X94.463Y-64.313
X97.485Y-73.635
X98.908Y-68.174
X100.254Y-87.503
X101.371Y-72.466
X102.489Y-87.503
T4
X56.896Y-54.61
X56.896Y-73.66
X56.896Y-92.71
X63.246Y-57.15
X63.246Y-76.2
X63.246Y-95.25
X75.946Y-54.61
X75.946Y-73.66
X75.946Y-92.71
X82.296Y-57.15
X82.296Y-76.2
X82.296Y-95.25
X94.996Y-54.61
X94.996Y-73.66
X94.996Y-92.71
X101.346Y-57.15
X101.346Y-76.2
X101.346Y-95.25
X114.046Y-54.61
X114.046Y-73.66
X114.046Y-92.71
X120.396Y-57.15
X120.396Y-76.2
X120.396Y-95.25
T5
X84.46Y-50.332
X90.24Y-50.332
T6
X54.888Y-45.332
X57.888Y-45.332
T7
X54.356Y-59.69
X54.356Y-78.74
X54.356Y-97.79
X64.516Y-59.69
X64.516Y-78.74
X64.516Y-97.79
X73.406Y-59.69
X73.406Y-78.74
X73.406Y-97.79
X83.566Y-59.69
X83.566Y-78.74
X83.566Y-97.79
X92.456Y-59.69
X92.456Y-78.74
X92.456Y-97.79
X102.616Y-59.69
X102.616Y-78.74
X102.616Y-97.79
X111.506Y-59.69
X111.506Y-78.74
X111.506Y-97.79
X121.666Y-59.69
X121.666Y-78.74
X121.666Y-97.79
T8
X48.768Y-109.83
X48.87Y-47.244
X127.508Y-47.168
X127.508Y-109.83
T9
X59.436Y-59.69
X59.436Y-78.74
X59.436Y-97.79
X78.486Y-59.69
X78.486Y-78.74
X78.486Y-97.79
X97.536Y-59.69
X97.536Y-78.74
X97.536Y-97.79
X116.586Y-59.69
X116.586Y-78.74
X116.586Y-97.79
T3
G00X83.03Y-46.952
M15
G01X83.03Y-46.352
M16
G05
G00X83.03Y-51.382
M15
G01X83.03Y-50.282
M16
G05
G00X91.67Y-46.952
M15
G01X91.67Y-46.352
M16
G05
G00X91.67Y-51.382
M15
G01X91.67Y-50.282
M16
G05
T0
M30
