%TF.GenerationSoftware,KiCad,Pcbnew,(6.0.10)*%
%TF.CreationDate,2023-01-10T16:59:13+01:00*%
%TF.ProjectId,rp2040_keyboard,72703230-3430-45f6-9b65-79626f617264,rev?*%
%TF.SameCoordinates,Original*%
%TF.FileFunction,Paste,Top*%
%TF.FilePolarity,Positive*%
%FSLAX46Y46*%
G04 Gerber Fmt 4.6, Leading zero omitted, Abs format (unit mm)*
G04 Created by KiCad (PCBNEW (6.0.10)) date 2023-01-10 16:59:13*
%MOMM*%
%LPD*%
G01*
G04 APERTURE LIST*
G04 Aperture macros list*
%AMRoundRect*
0 Rectangle with rounded corners*
0 $1 Rounding radius*
0 $2 $3 $4 $5 $6 $7 $8 $9 X,Y pos of 4 corners*
0 Add a 4 corners polygon primitive as box body*
4,1,4,$2,$3,$4,$5,$6,$7,$8,$9,$2,$3,0*
0 Add four circle primitives for the rounded corners*
1,1,$1+$1,$2,$3*
1,1,$1+$1,$4,$5*
1,1,$1+$1,$6,$7*
1,1,$1+$1,$8,$9*
0 Add four rect primitives between the rounded corners*
20,1,$1+$1,$2,$3,$4,$5,0*
20,1,$1+$1,$4,$5,$6,$7,0*
20,1,$1+$1,$6,$7,$8,$9,0*
20,1,$1+$1,$8,$9,$2,$3,0*%
G04 Aperture macros list end*
%ADD10R,0.700000X1.500000*%
%ADD11R,1.000000X0.800000*%
%ADD12RoundRect,0.135000X0.185000X-0.135000X0.185000X0.135000X-0.185000X0.135000X-0.185000X-0.135000X0*%
%ADD13R,0.900000X1.200000*%
%ADD14RoundRect,0.140000X0.140000X0.170000X-0.140000X0.170000X-0.140000X-0.170000X0.140000X-0.170000X0*%
%ADD15RoundRect,0.140000X0.170000X-0.140000X0.170000X0.140000X-0.170000X0.140000X-0.170000X-0.140000X0*%
%ADD16RoundRect,0.225000X-0.225000X-0.250000X0.225000X-0.250000X0.225000X0.250000X-0.225000X0.250000X0*%
%ADD17R,1.500000X2.000000*%
%ADD18R,3.800000X2.000000*%
%ADD19RoundRect,0.140000X-0.140000X-0.170000X0.140000X-0.170000X0.140000X0.170000X-0.140000X0.170000X0*%
%ADD20RoundRect,0.135000X-0.135000X-0.185000X0.135000X-0.185000X0.135000X0.185000X-0.135000X0.185000X0*%
%ADD21R,0.300000X1.150000*%
%ADD22RoundRect,0.140000X-0.170000X0.140000X-0.170000X-0.140000X0.170000X-0.140000X0.170000X0.140000X0*%
%ADD23RoundRect,0.135000X0.135000X0.185000X-0.135000X0.185000X-0.135000X-0.185000X0.135000X-0.185000X0*%
%ADD24RoundRect,0.150000X-0.650000X-0.150000X0.650000X-0.150000X0.650000X0.150000X-0.650000X0.150000X0*%
%ADD25RoundRect,0.225000X-0.250000X0.225000X-0.250000X-0.225000X0.250000X-0.225000X0.250000X0.225000X0*%
%ADD26RoundRect,0.250000X-0.315000X-0.315000X0.315000X-0.315000X0.315000X0.315000X-0.315000X0.315000X0*%
%ADD27RoundRect,0.050000X-0.387500X-0.050000X0.387500X-0.050000X0.387500X0.050000X-0.387500X0.050000X0*%
%ADD28RoundRect,0.050000X-0.050000X-0.387500X0.050000X-0.387500X0.050000X0.387500X-0.050000X0.387500X0*%
%ADD29R,1.400000X1.200000*%
G04 APERTURE END LIST*
D10*
%TO.C,SW13*%
X54138000Y-47091600D03*
X55638000Y-47091600D03*
X58638000Y-47091600D03*
D11*
X52738000Y-44231600D03*
X60038000Y-46441600D03*
X52738000Y-46441600D03*
X60038000Y-44231600D03*
%TD*%
D12*
%TO.C,R1*%
X89174000Y-65583000D03*
X89174000Y-64563000D03*
%TD*%
D13*
%TO.C,D2*%
X95098600Y-51130200D03*
X98398600Y-51130200D03*
%TD*%
D14*
%TO.C,C12*%
X87094000Y-81534000D03*
X86134000Y-81534000D03*
%TD*%
%TO.C,C1*%
X88138000Y-65024000D03*
X87178000Y-65024000D03*
%TD*%
%TO.C,C5*%
X83030000Y-74066400D03*
X82070000Y-74066400D03*
%TD*%
D15*
%TO.C,C8*%
X89916000Y-78712000D03*
X89916000Y-77752000D03*
%TD*%
D16*
%TO.C,C14*%
X105905000Y-60452000D03*
X107455000Y-60452000D03*
%TD*%
D17*
%TO.C,U2*%
X108726000Y-62890000D03*
X106426000Y-62890000D03*
D18*
X106426000Y-69190000D03*
D17*
X104126000Y-62890000D03*
%TD*%
D13*
%TO.C,D5*%
X110719600Y-87503000D03*
X114019600Y-87503000D03*
%TD*%
%TO.C,D6*%
X98297000Y-87503000D03*
X94997000Y-87503000D03*
%TD*%
%TO.C,D8*%
X60171600Y-87223600D03*
X56871600Y-87223600D03*
%TD*%
D12*
%TO.C,R2*%
X90424000Y-65583000D03*
X90424000Y-64563000D03*
%TD*%
D19*
%TO.C,C10*%
X91242000Y-66576000D03*
X92202000Y-66576000D03*
%TD*%
D13*
%TO.C,D1*%
X110795800Y-51231800D03*
X114095800Y-51231800D03*
%TD*%
D20*
%TO.C,R7*%
X56669400Y-49403000D03*
X55649400Y-49403000D03*
%TD*%
%TO.C,R4*%
X90629200Y-53492400D03*
X89609200Y-53492400D03*
%TD*%
D21*
%TO.C,J1*%
X90700000Y-51396600D03*
X89900000Y-51396600D03*
X88600000Y-51396600D03*
X87600000Y-51396600D03*
X87100000Y-51396600D03*
X86100000Y-51396600D03*
X84800000Y-51396600D03*
X84000000Y-51396600D03*
X84300000Y-51396600D03*
X85100000Y-51396600D03*
X85600000Y-51396600D03*
X86600000Y-51396600D03*
X88100000Y-51396600D03*
X89100000Y-51396600D03*
X89600000Y-51396600D03*
X90400000Y-51396600D03*
%TD*%
D22*
%TO.C,C4*%
X92710000Y-73332400D03*
X92710000Y-74292400D03*
%TD*%
D19*
%TO.C,C16*%
X73434000Y-45974000D03*
X74394000Y-45974000D03*
%TD*%
%TO.C,C11*%
X92202000Y-67668200D03*
X91242000Y-67668200D03*
%TD*%
%TO.C,C3*%
X92611000Y-69951600D03*
X93571000Y-69951600D03*
%TD*%
D13*
%TO.C,D10*%
X98195400Y-106603800D03*
X94895400Y-106603800D03*
%TD*%
D22*
%TO.C,C2*%
X88468200Y-78712000D03*
X88468200Y-77752000D03*
%TD*%
D23*
%TO.C,R5*%
X84275200Y-53492400D03*
X85295200Y-53492400D03*
%TD*%
D13*
%TO.C,D12*%
X60197000Y-106527600D03*
X56897000Y-106527600D03*
%TD*%
D24*
%TO.C,U3*%
X66600000Y-47395000D03*
X66600000Y-48665000D03*
X66600000Y-49935000D03*
X66600000Y-51205000D03*
X73800000Y-51205000D03*
X73800000Y-49935000D03*
X73800000Y-48665000D03*
X73800000Y-47395000D03*
%TD*%
D19*
%TO.C,C13*%
X89182000Y-81534000D03*
X90142000Y-81534000D03*
%TD*%
D13*
%TO.C,D4*%
X60222400Y-70383400D03*
X56922400Y-70383400D03*
%TD*%
D25*
%TO.C,C15*%
X101346000Y-69329000D03*
X101346000Y-70879000D03*
%TD*%
D26*
%TO.C,U1*%
X85850000Y-71648000D03*
X88650000Y-74448000D03*
X87250000Y-74448000D03*
X87250000Y-70248000D03*
X85850000Y-70248000D03*
X85850000Y-73048000D03*
X85850000Y-74448000D03*
X90050000Y-71648000D03*
X87250000Y-71648000D03*
X90050000Y-73048000D03*
X88650000Y-70248000D03*
X87250000Y-73048000D03*
X90050000Y-74448000D03*
X90050000Y-70248000D03*
X88650000Y-71648000D03*
X88650000Y-73048000D03*
D27*
X84512500Y-69748000D03*
X84512500Y-70148000D03*
X84512500Y-70548000D03*
X84512500Y-70948000D03*
X84512500Y-71348000D03*
X84512500Y-71748000D03*
X84512500Y-72148000D03*
X84512500Y-72548000D03*
X84512500Y-72948000D03*
X84512500Y-73348000D03*
X84512500Y-73748000D03*
X84512500Y-74148000D03*
X84512500Y-74548000D03*
X84512500Y-74948000D03*
D28*
X85350000Y-75785500D03*
X85750000Y-75785500D03*
X86150000Y-75785500D03*
X86550000Y-75785500D03*
X86950000Y-75785500D03*
X87350000Y-75785500D03*
X87750000Y-75785500D03*
X88150000Y-75785500D03*
X88550000Y-75785500D03*
X88950000Y-75785500D03*
X89350000Y-75785500D03*
X89750000Y-75785500D03*
X90150000Y-75785500D03*
X90550000Y-75785500D03*
D27*
X91387500Y-74948000D03*
X91387500Y-74548000D03*
X91387500Y-74148000D03*
X91387500Y-73748000D03*
X91387500Y-73348000D03*
X91387500Y-72948000D03*
X91387500Y-72548000D03*
X91387500Y-72148000D03*
X91387500Y-71748000D03*
X91387500Y-71348000D03*
X91387500Y-70948000D03*
X91387500Y-70548000D03*
X91387500Y-70148000D03*
X91387500Y-69748000D03*
D28*
X90550000Y-68910500D03*
X90150000Y-68910500D03*
X89750000Y-68910500D03*
X89350000Y-68910500D03*
X88950000Y-68910500D03*
X88550000Y-68910500D03*
X88150000Y-68910500D03*
X87750000Y-68910500D03*
X87350000Y-68910500D03*
X86950000Y-68910500D03*
X86550000Y-68910500D03*
X86150000Y-68910500D03*
X85750000Y-68910500D03*
X85350000Y-68910500D03*
%TD*%
D14*
%TO.C,C9*%
X85824000Y-65024000D03*
X84864000Y-65024000D03*
%TD*%
D23*
%TO.C,R3*%
X92176600Y-77089000D03*
X91156600Y-77089000D03*
%TD*%
D19*
%TO.C,C7*%
X92611000Y-68884800D03*
X93571000Y-68884800D03*
%TD*%
D13*
%TO.C,D9*%
X110719600Y-106603800D03*
X114019600Y-106603800D03*
%TD*%
%TO.C,D11*%
X72670400Y-106603800D03*
X75970400Y-106603800D03*
%TD*%
D14*
%TO.C,C6*%
X83131600Y-69494400D03*
X82171600Y-69494400D03*
%TD*%
D13*
%TO.C,D3*%
X67641200Y-70434200D03*
X70941200Y-70434200D03*
%TD*%
%TO.C,D7*%
X79196200Y-87249000D03*
X75896200Y-87249000D03*
%TD*%
D29*
%TO.C,Y1*%
X87038000Y-88734000D03*
X89238000Y-88734000D03*
X89238000Y-87034000D03*
X87038000Y-87034000D03*
%TD*%
M02*
