%TF.GenerationSoftware,KiCad,Pcbnew,(6.0.10)*%
%TF.CreationDate,2023-01-10T16:59:13+01:00*%
%TF.ProjectId,rp2040_keyboard,72703230-3430-45f6-9b65-79626f617264,rev?*%
%TF.SameCoordinates,Original*%
%TF.FileFunction,Copper,L1,Top*%
%TF.FilePolarity,Positive*%
%FSLAX46Y46*%
G04 Gerber Fmt 4.6, Leading zero omitted, Abs format (unit mm)*
G04 Created by KiCad (PCBNEW (6.0.10)) date 2023-01-10 16:59:13*
%MOMM*%
%LPD*%
G01*
G04 APERTURE LIST*
G04 Aperture macros list*
%AMRoundRect*
0 Rectangle with rounded corners*
0 $1 Rounding radius*
0 $2 $3 $4 $5 $6 $7 $8 $9 X,Y pos of 4 corners*
0 Add a 4 corners polygon primitive as box body*
4,1,4,$2,$3,$4,$5,$6,$7,$8,$9,$2,$3,0*
0 Add four circle primitives for the rounded corners*
1,1,$1+$1,$2,$3*
1,1,$1+$1,$4,$5*
1,1,$1+$1,$6,$7*
1,1,$1+$1,$8,$9*
0 Add four rect primitives between the rounded corners*
20,1,$1+$1,$2,$3,$4,$5,0*
20,1,$1+$1,$4,$5,$6,$7,0*
20,1,$1+$1,$6,$7,$8,$9,0*
20,1,$1+$1,$8,$9,$2,$3,0*%
G04 Aperture macros list end*
%TA.AperFunction,ComponentPad*%
%ADD10C,2.500000*%
%TD*%
%TA.AperFunction,SMDPad,CuDef*%
%ADD11R,0.700000X1.500000*%
%TD*%
%TA.AperFunction,SMDPad,CuDef*%
%ADD12R,1.000000X0.800000*%
%TD*%
%TA.AperFunction,SMDPad,CuDef*%
%ADD13RoundRect,0.135000X0.185000X-0.135000X0.185000X0.135000X-0.185000X0.135000X-0.185000X-0.135000X0*%
%TD*%
%TA.AperFunction,SMDPad,CuDef*%
%ADD14R,0.900000X1.200000*%
%TD*%
%TA.AperFunction,SMDPad,CuDef*%
%ADD15RoundRect,0.140000X0.140000X0.170000X-0.140000X0.170000X-0.140000X-0.170000X0.140000X-0.170000X0*%
%TD*%
%TA.AperFunction,SMDPad,CuDef*%
%ADD16RoundRect,0.140000X0.170000X-0.140000X0.170000X0.140000X-0.170000X0.140000X-0.170000X-0.140000X0*%
%TD*%
%TA.AperFunction,SMDPad,CuDef*%
%ADD17RoundRect,0.225000X-0.225000X-0.250000X0.225000X-0.250000X0.225000X0.250000X-0.225000X0.250000X0*%
%TD*%
%TA.AperFunction,SMDPad,CuDef*%
%ADD18R,1.500000X2.000000*%
%TD*%
%TA.AperFunction,SMDPad,CuDef*%
%ADD19R,3.800000X2.000000*%
%TD*%
%TA.AperFunction,SMDPad,CuDef*%
%ADD20RoundRect,0.140000X-0.140000X-0.170000X0.140000X-0.170000X0.140000X0.170000X-0.140000X0.170000X0*%
%TD*%
%TA.AperFunction,SMDPad,CuDef*%
%ADD21RoundRect,0.135000X-0.135000X-0.185000X0.135000X-0.185000X0.135000X0.185000X-0.135000X0.185000X0*%
%TD*%
%TA.AperFunction,SMDPad,CuDef*%
%ADD22R,0.300000X1.150000*%
%TD*%
%TA.AperFunction,ComponentPad*%
%ADD23O,1.000000X2.100000*%
%TD*%
%TA.AperFunction,ComponentPad*%
%ADD24O,1.000000X1.600000*%
%TD*%
%TA.AperFunction,SMDPad,CuDef*%
%ADD25RoundRect,0.140000X-0.170000X0.140000X-0.170000X-0.140000X0.170000X-0.140000X0.170000X0.140000X0*%
%TD*%
%TA.AperFunction,SMDPad,CuDef*%
%ADD26RoundRect,0.135000X0.135000X0.185000X-0.135000X0.185000X-0.135000X-0.185000X0.135000X-0.185000X0*%
%TD*%
%TA.AperFunction,SMDPad,CuDef*%
%ADD27RoundRect,0.150000X-0.650000X-0.150000X0.650000X-0.150000X0.650000X0.150000X-0.650000X0.150000X0*%
%TD*%
%TA.AperFunction,SMDPad,CuDef*%
%ADD28RoundRect,0.225000X-0.250000X0.225000X-0.250000X-0.225000X0.250000X-0.225000X0.250000X0.225000X0*%
%TD*%
%TA.AperFunction,SMDPad,CuDef*%
%ADD29RoundRect,0.050000X-0.387500X-0.050000X0.387500X-0.050000X0.387500X0.050000X-0.387500X0.050000X0*%
%TD*%
%TA.AperFunction,SMDPad,CuDef*%
%ADD30RoundRect,0.050000X-0.050000X-0.387500X0.050000X-0.387500X0.050000X0.387500X-0.050000X0.387500X0*%
%TD*%
%TA.AperFunction,SMDPad,CuDef*%
%ADD31R,5.600000X5.600000*%
%TD*%
%TA.AperFunction,SMDPad,CuDef*%
%ADD32R,1.400000X1.200000*%
%TD*%
%TA.AperFunction,ViaPad*%
%ADD33C,0.700000*%
%TD*%
%TA.AperFunction,ViaPad*%
%ADD34C,0.800000*%
%TD*%
%TA.AperFunction,Conductor*%
%ADD35C,0.500000*%
%TD*%
%TA.AperFunction,Conductor*%
%ADD36C,0.300000*%
%TD*%
%TA.AperFunction,Conductor*%
%ADD37C,0.200000*%
%TD*%
%TA.AperFunction,Conductor*%
%ADD38C,0.250000*%
%TD*%
%TA.AperFunction,Conductor*%
%ADD39C,0.800000*%
%TD*%
G04 APERTURE END LIST*
D10*
%TO.P,SW1,1,1*%
%TO.N,/COL_0*%
X120396000Y-57150000D03*
%TO.P,SW1,2,2*%
%TO.N,Net-(D1-Pad2)*%
X114046000Y-54610000D03*
%TD*%
D11*
%TO.P,SW13,3,C*%
%TO.N,GND*%
X54138000Y-47091600D03*
%TO.P,SW13,2,B*%
%TO.N,/~{USB_BOOT}*%
X55638000Y-47091600D03*
%TO.P,SW13,1,A*%
%TO.N,+3V3*%
X58638000Y-47091600D03*
D12*
%TO.P,SW13,*%
%TO.N,*%
X52738000Y-44231600D03*
X60038000Y-46441600D03*
X52738000Y-46441600D03*
X60038000Y-44231600D03*
%TD*%
D13*
%TO.P,R1,1*%
%TO.N,Net-(R1-Pad1)*%
X89174000Y-65583000D03*
%TO.P,R1,2*%
%TO.N,/USB_D+*%
X89174000Y-64563000D03*
%TD*%
D14*
%TO.P,D2,2,A*%
%TO.N,Net-(D2-Pad2)*%
X95098600Y-51130200D03*
%TO.P,D2,1,K*%
%TO.N,/ROW_0*%
X98398600Y-51130200D03*
%TD*%
D15*
%TO.P,C12,1*%
%TO.N,/XIN*%
X87094000Y-81534000D03*
%TO.P,C12,2*%
%TO.N,GND*%
X86134000Y-81534000D03*
%TD*%
%TO.P,C1,1*%
%TO.N,+3V3*%
X88138000Y-65024000D03*
%TO.P,C1,2*%
%TO.N,GND*%
X87178000Y-65024000D03*
%TD*%
%TO.P,C5,1*%
%TO.N,+3V3*%
X83030000Y-74066400D03*
%TO.P,C5,2*%
%TO.N,GND*%
X82070000Y-74066400D03*
%TD*%
D16*
%TO.P,C8,1*%
%TO.N,GND*%
X89916000Y-78712000D03*
%TO.P,C8,2*%
%TO.N,+1V1*%
X89916000Y-77752000D03*
%TD*%
D17*
%TO.P,C14,1*%
%TO.N,VBUS*%
X105905000Y-60452000D03*
%TO.P,C14,2*%
%TO.N,GND*%
X107455000Y-60452000D03*
%TD*%
D18*
%TO.P,U2,1,GND*%
%TO.N,GND*%
X108726000Y-62890000D03*
%TO.P,U2,2,VO*%
%TO.N,+3V3*%
X106426000Y-62890000D03*
D19*
X106426000Y-69190000D03*
D18*
%TO.P,U2,3,VI*%
%TO.N,VBUS*%
X104126000Y-62890000D03*
%TD*%
D14*
%TO.P,D5,1,K*%
%TO.N,/ROW_1*%
X110719600Y-87503000D03*
%TO.P,D5,2,A*%
%TO.N,Net-(D5-Pad2)*%
X114019600Y-87503000D03*
%TD*%
%TO.P,D6,1,K*%
%TO.N,/ROW_1*%
X98297000Y-87503000D03*
%TO.P,D6,2,A*%
%TO.N,Net-(D6-Pad2)*%
X94997000Y-87503000D03*
%TD*%
%TO.P,D8,1,K*%
%TO.N,/ROW_1*%
X60171600Y-87223600D03*
%TO.P,D8,2,A*%
%TO.N,Net-(D8-Pad2)*%
X56871600Y-87223600D03*
%TD*%
D13*
%TO.P,R2,1*%
%TO.N,Net-(R2-Pad1)*%
X90424000Y-65583000D03*
%TO.P,R2,2*%
%TO.N,/USB_D-*%
X90424000Y-64563000D03*
%TD*%
D20*
%TO.P,C10,1*%
%TO.N,+1V1*%
X91242000Y-66576000D03*
%TO.P,C10,2*%
%TO.N,GND*%
X92202000Y-66576000D03*
%TD*%
D14*
%TO.P,D1,1,K*%
%TO.N,/ROW_0*%
X110795800Y-51231800D03*
%TO.P,D1,2,A*%
%TO.N,Net-(D1-Pad2)*%
X114095800Y-51231800D03*
%TD*%
D21*
%TO.P,R7,2*%
%TO.N,/QSPI_SS*%
X56669400Y-49403000D03*
%TO.P,R7,1*%
%TO.N,/~{USB_BOOT}*%
X55649400Y-49403000D03*
%TD*%
%TO.P,R4,2*%
%TO.N,GND*%
X90629200Y-53492400D03*
%TO.P,R4,1*%
%TO.N,Net-(J1-PadA5)*%
X89609200Y-53492400D03*
%TD*%
D22*
%TO.P,J1,A1,GND*%
%TO.N,GND*%
X90700000Y-51396600D03*
%TO.P,J1,A4,VBUS*%
%TO.N,VBUS*%
X89900000Y-51396600D03*
%TO.P,J1,A5,CC1*%
%TO.N,Net-(J1-PadA5)*%
X88600000Y-51396600D03*
%TO.P,J1,A6,D+*%
%TO.N,/USB_D+*%
X87600000Y-51396600D03*
%TO.P,J1,A7,D-*%
%TO.N,/USB_D-*%
X87100000Y-51396600D03*
%TO.P,J1,A8,SBU1*%
%TO.N,unconnected-(J1-PadA8)*%
X86100000Y-51396600D03*
%TO.P,J1,A9,VBUS*%
%TO.N,VBUS*%
X84800000Y-51396600D03*
%TO.P,J1,A12,GND*%
%TO.N,GND*%
X84000000Y-51396600D03*
%TO.P,J1,B1,GND*%
X84300000Y-51396600D03*
%TO.P,J1,B4,VBUS*%
%TO.N,VBUS*%
X85100000Y-51396600D03*
%TO.P,J1,B5,CC2*%
%TO.N,Net-(J1-PadB5)*%
X85600000Y-51396600D03*
%TO.P,J1,B6,D+*%
%TO.N,/USB_D+*%
X86600000Y-51396600D03*
%TO.P,J1,B7,D-*%
%TO.N,/USB_D-*%
X88100000Y-51396600D03*
%TO.P,J1,B8,SBU2*%
%TO.N,unconnected-(J1-PadB8)*%
X89100000Y-51396600D03*
%TO.P,J1,B9,VBUS*%
%TO.N,VBUS*%
X89600000Y-51396600D03*
%TO.P,J1,B12,GND*%
%TO.N,GND*%
X90400000Y-51396600D03*
D23*
%TO.P,J1,S1,SHIELD*%
%TO.N,unconnected-(J1-PadS1)*%
X91670000Y-50831600D03*
D24*
X83030000Y-46651600D03*
D23*
X83030000Y-50831600D03*
D24*
X91670000Y-46651600D03*
%TD*%
D25*
%TO.P,C4,1*%
%TO.N,+3V3*%
X92710000Y-73332400D03*
%TO.P,C4,2*%
%TO.N,GND*%
X92710000Y-74292400D03*
%TD*%
D20*
%TO.P,C16,1*%
%TO.N,+3V3*%
X73434000Y-45974000D03*
%TO.P,C16,2*%
%TO.N,GND*%
X74394000Y-45974000D03*
%TD*%
%TO.P,C11,2*%
%TO.N,GND*%
X92202000Y-67668200D03*
%TO.P,C11,1*%
%TO.N,+3V3*%
X91242000Y-67668200D03*
%TD*%
%TO.P,C3,1*%
%TO.N,+3V3*%
X92611000Y-69951600D03*
%TO.P,C3,2*%
%TO.N,GND*%
X93571000Y-69951600D03*
%TD*%
D14*
%TO.P,D10,1,K*%
%TO.N,/ROW_2*%
X98195400Y-106603800D03*
%TO.P,D10,2,A*%
%TO.N,Net-(D10-Pad2)*%
X94895400Y-106603800D03*
%TD*%
D25*
%TO.P,C2,2*%
%TO.N,GND*%
X88468200Y-78712000D03*
%TO.P,C2,1*%
%TO.N,+3V3*%
X88468200Y-77752000D03*
%TD*%
D26*
%TO.P,R5,2*%
%TO.N,GND*%
X84275200Y-53492400D03*
%TO.P,R5,1*%
%TO.N,Net-(J1-PadB5)*%
X85295200Y-53492400D03*
%TD*%
D14*
%TO.P,D12,1,K*%
%TO.N,/ROW_2*%
X60197000Y-106527600D03*
%TO.P,D12,2,A*%
%TO.N,Net-(D12-Pad2)*%
X56897000Y-106527600D03*
%TD*%
D27*
%TO.P,U3,1,~{CS}*%
%TO.N,/QSPI_SS*%
X66600000Y-47395000D03*
%TO.P,U3,2,DO(IO1)*%
%TO.N,/QSPI_SD1*%
X66600000Y-48665000D03*
%TO.P,U3,3,IO2*%
%TO.N,/QSPI_SD2*%
X66600000Y-49935000D03*
%TO.P,U3,4,GND*%
%TO.N,GND*%
X66600000Y-51205000D03*
%TO.P,U3,5,DI(IO0)*%
%TO.N,/QSPI_SD0*%
X73800000Y-51205000D03*
%TO.P,U3,6,CLK*%
%TO.N,/QSPI_SCLK*%
X73800000Y-49935000D03*
%TO.P,U3,7,IO3*%
%TO.N,/QSPI_SD3*%
X73800000Y-48665000D03*
%TO.P,U3,8,VCC*%
%TO.N,+3V3*%
X73800000Y-47395000D03*
%TD*%
D20*
%TO.P,C13,1*%
%TO.N,/XOUT*%
X89182000Y-81534000D03*
%TO.P,C13,2*%
%TO.N,GND*%
X90142000Y-81534000D03*
%TD*%
D14*
%TO.P,D4,1,K*%
%TO.N,/ROW_0*%
X60222400Y-70383400D03*
%TO.P,D4,2,A*%
%TO.N,Net-(D4-Pad2)*%
X56922400Y-70383400D03*
%TD*%
D28*
%TO.P,C15,1*%
%TO.N,+3V3*%
X101346000Y-69329000D03*
%TO.P,C15,2*%
%TO.N,GND*%
X101346000Y-70879000D03*
%TD*%
D29*
%TO.P,U1,1,IOVDD*%
%TO.N,+3V3*%
X84512500Y-69748000D03*
%TO.P,U1,2,GPIO0*%
%TO.N,unconnected-(U1-Pad2)*%
X84512500Y-70148000D03*
%TO.P,U1,3,GPIO1*%
%TO.N,unconnected-(U1-Pad3)*%
X84512500Y-70548000D03*
%TO.P,U1,4,GPIO2*%
%TO.N,/ROW_0*%
X84512500Y-70948000D03*
%TO.P,U1,5,GPIO3*%
%TO.N,/COL_3*%
X84512500Y-71348000D03*
%TO.P,U1,6,GPIO4*%
%TO.N,/COL_2*%
X84512500Y-71748000D03*
%TO.P,U1,7,GPIO5*%
%TO.N,unconnected-(U1-Pad7)*%
X84512500Y-72148000D03*
%TO.P,U1,8,GPIO6*%
%TO.N,unconnected-(U1-Pad8)*%
X84512500Y-72548000D03*
%TO.P,U1,9,GPIO7*%
%TO.N,unconnected-(U1-Pad9)*%
X84512500Y-72948000D03*
%TO.P,U1,10,IOVDD*%
%TO.N,+3V3*%
X84512500Y-73348000D03*
%TO.P,U1,11,GPIO8*%
%TO.N,unconnected-(U1-Pad11)*%
X84512500Y-73748000D03*
%TO.P,U1,12,GPIO9*%
%TO.N,unconnected-(U1-Pad12)*%
X84512500Y-74148000D03*
%TO.P,U1,13,GPIO10*%
%TO.N,unconnected-(U1-Pad13)*%
X84512500Y-74548000D03*
%TO.P,U1,14,GPIO11*%
%TO.N,unconnected-(U1-Pad14)*%
X84512500Y-74948000D03*
D30*
%TO.P,U1,15,GPIO12*%
%TO.N,/ROW_1*%
X85350000Y-75785500D03*
%TO.P,U1,16,GPIO13*%
%TO.N,unconnected-(U1-Pad16)*%
X85750000Y-75785500D03*
%TO.P,U1,17,GPIO14*%
%TO.N,unconnected-(U1-Pad17)*%
X86150000Y-75785500D03*
%TO.P,U1,18,GPIO15*%
%TO.N,unconnected-(U1-Pad18)*%
X86550000Y-75785500D03*
%TO.P,U1,19,TESTEN*%
%TO.N,GND*%
X86950000Y-75785500D03*
%TO.P,U1,20,XIN*%
%TO.N,/XIN*%
X87350000Y-75785500D03*
%TO.P,U1,21,XOUT*%
%TO.N,/XOUT*%
X87750000Y-75785500D03*
%TO.P,U1,22,IOVDD*%
%TO.N,+3V3*%
X88150000Y-75785500D03*
%TO.P,U1,23,DVDD*%
%TO.N,+1V1*%
X88550000Y-75785500D03*
%TO.P,U1,24,SWCLK*%
%TO.N,unconnected-(U1-Pad24)*%
X88950000Y-75785500D03*
%TO.P,U1,25,SWD*%
%TO.N,unconnected-(U1-Pad25)*%
X89350000Y-75785500D03*
%TO.P,U1,26,RUN*%
%TO.N,Net-(R3-Pad2)*%
X89750000Y-75785500D03*
%TO.P,U1,27,GPIO16*%
%TO.N,unconnected-(U1-Pad27)*%
X90150000Y-75785500D03*
%TO.P,U1,28,GPIO17*%
%TO.N,unconnected-(U1-Pad28)*%
X90550000Y-75785500D03*
D29*
%TO.P,U1,29,GPIO18*%
%TO.N,/ROW_2*%
X91387500Y-74948000D03*
%TO.P,U1,30,GPIO19*%
%TO.N,unconnected-(U1-Pad30)*%
X91387500Y-74548000D03*
%TO.P,U1,31,GPIO20*%
%TO.N,unconnected-(U1-Pad31)*%
X91387500Y-74148000D03*
%TO.P,U1,32,GPIO21*%
%TO.N,unconnected-(U1-Pad32)*%
X91387500Y-73748000D03*
%TO.P,U1,33,IOVDD*%
%TO.N,+3V3*%
X91387500Y-73348000D03*
%TO.P,U1,34,GPIO22*%
%TO.N,unconnected-(U1-Pad34)*%
X91387500Y-72948000D03*
%TO.P,U1,35,GPIO23*%
%TO.N,unconnected-(U1-Pad35)*%
X91387500Y-72548000D03*
%TO.P,U1,36,GPIO24*%
%TO.N,/COL_1*%
X91387500Y-72148000D03*
%TO.P,U1,37,GPIO25*%
%TO.N,/COL_0*%
X91387500Y-71748000D03*
%TO.P,U1,38,GPIO26_ADC0*%
%TO.N,unconnected-(U1-Pad38)*%
X91387500Y-71348000D03*
%TO.P,U1,39,GPIO27_ADC1*%
%TO.N,unconnected-(U1-Pad39)*%
X91387500Y-70948000D03*
%TO.P,U1,40,GPIO28_ADC2*%
%TO.N,unconnected-(U1-Pad40)*%
X91387500Y-70548000D03*
%TO.P,U1,41,GPIO29_ADC3*%
%TO.N,unconnected-(U1-Pad41)*%
X91387500Y-70148000D03*
%TO.P,U1,42,IOVDD*%
%TO.N,+3V3*%
X91387500Y-69748000D03*
D30*
%TO.P,U1,43,ADC_AVDD*%
X90550000Y-68910500D03*
%TO.P,U1,44,VREG_IN*%
X90150000Y-68910500D03*
%TO.P,U1,45,VREG_VOUT*%
%TO.N,+1V1*%
X89750000Y-68910500D03*
%TO.P,U1,46,USB_DM*%
%TO.N,Net-(R2-Pad1)*%
X89350000Y-68910500D03*
%TO.P,U1,47,USB_DP*%
%TO.N,Net-(R1-Pad1)*%
X88950000Y-68910500D03*
%TO.P,U1,48,USB_VDD*%
%TO.N,+3V3*%
X88550000Y-68910500D03*
%TO.P,U1,49,IOVDD*%
X88150000Y-68910500D03*
%TO.P,U1,50,DVDD*%
%TO.N,+1V1*%
X87750000Y-68910500D03*
%TO.P,U1,51,QSPI_SD3*%
%TO.N,/QSPI_SD3*%
X87350000Y-68910500D03*
%TO.P,U1,52,QSPI_SCLK*%
%TO.N,/QSPI_SCLK*%
X86950000Y-68910500D03*
%TO.P,U1,53,QSPI_SD0*%
%TO.N,/QSPI_SD0*%
X86550000Y-68910500D03*
%TO.P,U1,54,QSPI_SD2*%
%TO.N,/QSPI_SD2*%
X86150000Y-68910500D03*
%TO.P,U1,55,QSPI_SD1*%
%TO.N,/QSPI_SD1*%
X85750000Y-68910500D03*
%TO.P,U1,56,QSPI_SS*%
%TO.N,/QSPI_SS*%
X85350000Y-68910500D03*
D31*
%TO.P,U1,57,GND*%
%TO.N,GND*%
X87950000Y-72348000D03*
%TD*%
D15*
%TO.P,C9,1*%
%TO.N,+1V1*%
X85824000Y-65024000D03*
%TO.P,C9,2*%
%TO.N,GND*%
X84864000Y-65024000D03*
%TD*%
D26*
%TO.P,R3,1*%
%TO.N,+3V3*%
X92176600Y-77089000D03*
%TO.P,R3,2*%
%TO.N,Net-(R3-Pad2)*%
X91156600Y-77089000D03*
%TD*%
D20*
%TO.P,C7,1*%
%TO.N,+3V3*%
X92611000Y-68884800D03*
%TO.P,C7,2*%
%TO.N,GND*%
X93571000Y-68884800D03*
%TD*%
D14*
%TO.P,D9,1,K*%
%TO.N,/ROW_2*%
X110719600Y-106603800D03*
%TO.P,D9,2,A*%
%TO.N,Net-(D9-Pad2)*%
X114019600Y-106603800D03*
%TD*%
%TO.P,D11,1,K*%
%TO.N,/ROW_2*%
X72670400Y-106603800D03*
%TO.P,D11,2,A*%
%TO.N,Net-(D11-Pad2)*%
X75970400Y-106603800D03*
%TD*%
D15*
%TO.P,C6,1*%
%TO.N,+3V3*%
X83131600Y-69494400D03*
%TO.P,C6,2*%
%TO.N,GND*%
X82171600Y-69494400D03*
%TD*%
D14*
%TO.P,D3,1,K*%
%TO.N,/ROW_0*%
X67641200Y-70434200D03*
%TO.P,D3,2,A*%
%TO.N,Net-(D3-Pad2)*%
X70941200Y-70434200D03*
%TD*%
%TO.P,D7,1,K*%
%TO.N,/ROW_1*%
X79196200Y-87249000D03*
%TO.P,D7,2,A*%
%TO.N,Net-(D7-Pad2)*%
X75896200Y-87249000D03*
%TD*%
D32*
%TO.P,Y1,1,1*%
%TO.N,/XIN*%
X87038000Y-88734000D03*
%TO.P,Y1,2,2*%
%TO.N,GND*%
X89238000Y-88734000D03*
%TO.P,Y1,3,3*%
%TO.N,/XOUT*%
X89238000Y-87034000D03*
%TO.P,Y1,4,4*%
%TO.N,GND*%
X87038000Y-87034000D03*
%TD*%
D10*
%TO.P,SW7,1,1*%
%TO.N,/COL_2*%
X82296000Y-76200000D03*
%TO.P,SW7,2,2*%
%TO.N,Net-(D7-Pad2)*%
X75946000Y-73660000D03*
%TD*%
%TO.P,SW5,1,1*%
%TO.N,/COL_0*%
X120396000Y-76200000D03*
%TO.P,SW5,2,2*%
%TO.N,Net-(D5-Pad2)*%
X114046000Y-73660000D03*
%TD*%
%TO.P,SW2,1,1*%
%TO.N,/COL_1*%
X101346000Y-57150000D03*
%TO.P,SW2,2,2*%
%TO.N,Net-(D2-Pad2)*%
X94996000Y-54610000D03*
%TD*%
%TO.P,SW6,1,1*%
%TO.N,/COL_1*%
X101346000Y-76200000D03*
%TO.P,SW6,2,2*%
%TO.N,Net-(D6-Pad2)*%
X94996000Y-73660000D03*
%TD*%
%TO.P,SW10,1,1*%
%TO.N,/COL_1*%
X101346000Y-95250000D03*
%TO.P,SW10,2,2*%
%TO.N,Net-(D10-Pad2)*%
X94996000Y-92710000D03*
%TD*%
%TO.P,SW8,1,1*%
%TO.N,/COL_3*%
X63246000Y-76200000D03*
%TO.P,SW8,2,2*%
%TO.N,Net-(D8-Pad2)*%
X56896000Y-73660000D03*
%TD*%
%TO.P,SW11,1,1*%
%TO.N,/COL_2*%
X82296000Y-95250000D03*
%TO.P,SW11,2,2*%
%TO.N,Net-(D11-Pad2)*%
X75946000Y-92710000D03*
%TD*%
%TO.P,SW9,1,1*%
%TO.N,/COL_0*%
X120396000Y-95250000D03*
%TO.P,SW9,2,2*%
%TO.N,Net-(D9-Pad2)*%
X114046000Y-92710000D03*
%TD*%
%TO.P,SW12,1,1*%
%TO.N,/COL_3*%
X63246000Y-95250000D03*
%TO.P,SW12,2,2*%
%TO.N,Net-(D12-Pad2)*%
X56896000Y-92710000D03*
%TD*%
%TO.P,SW4,2,2*%
%TO.N,Net-(D4-Pad2)*%
X56896000Y-54610000D03*
%TO.P,SW4,1,1*%
%TO.N,/COL_3*%
X63246000Y-57150000D03*
%TD*%
%TO.P,SW3,1,1*%
%TO.N,/COL_2*%
X82296000Y-57150000D03*
%TO.P,SW3,2,2*%
%TO.N,Net-(D3-Pad2)*%
X75946000Y-54610000D03*
%TD*%
D33*
%TO.N,GND*%
X109880400Y-61366400D03*
%TO.N,VBUS*%
X105892600Y-52070000D03*
X105892600Y-49936400D03*
%TO.N,GND*%
X108850000Y-61000000D03*
X108850000Y-60000000D03*
X54152800Y-49174400D03*
D34*
%TO.N,+3V3*%
X85318600Y-61366400D03*
X82550000Y-61366400D03*
X83159600Y-72974200D03*
X92990756Y-77089000D03*
X83108800Y-70248500D03*
X79679800Y-56870600D03*
X93116400Y-72847500D03*
X87172800Y-61366400D03*
X94462600Y-64312800D03*
X87909400Y-79629000D03*
X92596378Y-70726978D03*
%TO.N,GND*%
X93751400Y-75793600D03*
X81203800Y-70002400D03*
X101371400Y-72466200D03*
X64566800Y-51231800D03*
X91363800Y-79959200D03*
X80518000Y-74168000D03*
X85318600Y-62915800D03*
X93141800Y-65887600D03*
%TO.N,+1V1*%
X87045800Y-65989200D03*
X90324678Y-66671566D03*
D33*
X89456625Y-76963957D03*
D34*
%TO.N,/ROW_0*%
X80173700Y-69346129D03*
X62052200Y-70383400D03*
X91922600Y-65201800D03*
X64465200Y-70383400D03*
%TO.N,Net-(D3-Pad2)*%
X77292200Y-65074800D03*
X77292200Y-69875400D03*
%TO.N,/ROW_1*%
X83591400Y-91770200D03*
X62217300Y-87287100D03*
X100253800Y-87503000D03*
X80797400Y-91770200D03*
X64160400Y-87299800D03*
X102489000Y-87503000D03*
%TO.N,/ROW_2*%
X92506800Y-88874600D03*
X92506800Y-91389200D03*
%TO.N,/COL_1*%
X97485200Y-73634600D03*
X98907600Y-68173600D03*
%TO.N,/COL_2*%
X78486000Y-72974200D03*
X81432400Y-64947800D03*
%TD*%
D35*
%TO.N,VBUS*%
X105892600Y-60439600D02*
X105905000Y-60452000D01*
X104546400Y-48590200D02*
X105892600Y-49936400D01*
X105892600Y-52070000D02*
X105892600Y-60439600D01*
X87350600Y-48590200D02*
X104546400Y-48590200D01*
D36*
%TO.N,GND*%
X92202000Y-66205800D02*
X92202000Y-66576000D01*
X91948000Y-65951800D02*
X92202000Y-66205800D01*
X91172600Y-65512461D02*
X91611939Y-65951800D01*
X91611939Y-65951800D02*
X91948000Y-65951800D01*
X93853000Y-61976000D02*
X91172600Y-64656400D01*
X91172600Y-64656400D02*
X91172600Y-65512461D01*
D35*
X92202000Y-67668200D02*
X92202000Y-66576000D01*
X92453400Y-66576000D02*
X93141800Y-65887600D01*
X92202000Y-66576000D02*
X92453400Y-66576000D01*
D37*
%TO.N,/COL_1*%
X93942600Y-72148000D02*
X91387500Y-72148000D01*
X94208600Y-71882000D02*
X93942600Y-72148000D01*
X97028000Y-71882000D02*
X94208600Y-71882000D01*
D36*
X97028000Y-73177400D02*
X97485200Y-73634600D01*
X97028000Y-71882000D02*
X97028000Y-73177400D01*
X97104200Y-71882000D02*
X101346000Y-76123800D01*
X97028000Y-71882000D02*
X97104200Y-71882000D01*
D37*
X101346000Y-76123800D02*
X101346000Y-76200000D01*
D35*
%TO.N,GND*%
X66600000Y-51205000D02*
X64593600Y-51205000D01*
X64593600Y-51205000D02*
X64566800Y-51231800D01*
X85877400Y-77444600D02*
X86106000Y-77216000D01*
X85877400Y-81277400D02*
X85877400Y-77444600D01*
X86134000Y-81534000D02*
X85877400Y-81277400D01*
X80619600Y-74066400D02*
X80518000Y-74168000D01*
X82070000Y-74066400D02*
X80619600Y-74066400D01*
%TO.N,+3V3*%
X82829400Y-73865800D02*
X83030000Y-74066400D01*
X82829400Y-73304400D02*
X82829400Y-73865800D01*
X83159600Y-72974200D02*
X82829400Y-73304400D01*
X83131600Y-70225700D02*
X83108800Y-70248500D01*
X83131600Y-69494400D02*
X83131600Y-70225700D01*
D37*
X84258900Y-69494400D02*
X83131600Y-69494400D01*
X84512500Y-69748000D02*
X84258900Y-69494400D01*
D35*
%TO.N,GND*%
X82171600Y-69494400D02*
X81711800Y-69494400D01*
X81711800Y-69494400D02*
X81203800Y-70002400D01*
X93571000Y-68884800D02*
X93571000Y-69951600D01*
X92710000Y-74752200D02*
X93751400Y-75793600D01*
X92710000Y-74292400D02*
X92710000Y-74752200D01*
D36*
%TO.N,+1V1*%
X89916000Y-77423332D02*
X89916000Y-77752000D01*
X89456625Y-76963957D02*
X89916000Y-77423332D01*
D37*
X88550000Y-76789800D02*
X89512200Y-77752000D01*
X89512200Y-77752000D02*
X89916000Y-77752000D01*
X88550000Y-75785500D02*
X88550000Y-76789800D01*
D35*
%TO.N,+3V3*%
X87708200Y-79427800D02*
X87909400Y-79629000D01*
X88283814Y-77752000D02*
X87708200Y-78327614D01*
X87708200Y-78327614D02*
X87708200Y-79427800D01*
X88468200Y-77752000D02*
X88283814Y-77752000D01*
D37*
X88150000Y-76974000D02*
X88150000Y-75785500D01*
X88468200Y-77292200D02*
X88150000Y-76974000D01*
X88468200Y-77752000D02*
X88468200Y-77292200D01*
D35*
%TO.N,GND*%
X90116600Y-78712000D02*
X91363800Y-79959200D01*
X89916000Y-78712000D02*
X90116600Y-78712000D01*
X90142000Y-80363000D02*
X90142000Y-81534000D01*
X89916000Y-80137000D02*
X90142000Y-80363000D01*
X89916000Y-78712000D02*
X89916000Y-80137000D01*
X88646000Y-78712000D02*
X89916000Y-78712000D01*
X91440000Y-82727800D02*
X90246200Y-81534000D01*
X91440000Y-87782400D02*
X91440000Y-82727800D01*
X90246200Y-81534000D02*
X90142000Y-81534000D01*
X90488400Y-88734000D02*
X91440000Y-87782400D01*
X89238000Y-88734000D02*
X90488400Y-88734000D01*
X89238000Y-89679600D02*
X89238000Y-88734000D01*
X85953600Y-90754200D02*
X88163400Y-90754200D01*
X85140800Y-89941400D02*
X85953600Y-90754200D01*
X85140800Y-87858600D02*
X85140800Y-89941400D01*
X85965400Y-87034000D02*
X85140800Y-87858600D01*
X87038000Y-87034000D02*
X85965400Y-87034000D01*
X88163400Y-90754200D02*
X89238000Y-89679600D01*
X86134000Y-86130000D02*
X87038000Y-87034000D01*
X86134000Y-81534000D02*
X86134000Y-86130000D01*
X93853000Y-58140600D02*
X93853000Y-58572400D01*
X90629200Y-54916800D02*
X93853000Y-58140600D01*
X90629200Y-53492400D02*
X90629200Y-54916800D01*
X90629200Y-53492400D02*
X90629200Y-51467400D01*
X86283800Y-57886600D02*
X86283800Y-63881000D01*
X84275200Y-55878000D02*
X86283800Y-57886600D01*
X84275200Y-53492400D02*
X84275200Y-55878000D01*
X84275200Y-53492400D02*
X84200000Y-53417200D01*
X84200000Y-53417200D02*
X84200000Y-51396600D01*
X81762600Y-53492400D02*
X84275200Y-53492400D01*
X81026000Y-52755800D02*
X81762600Y-53492400D01*
X81026000Y-49123600D02*
X81026000Y-52755800D01*
X77876400Y-45974000D02*
X81026000Y-49123600D01*
X74394000Y-45974000D02*
X77876400Y-45974000D01*
D36*
%TO.N,/~{USB_BOOT}*%
X55638000Y-49391600D02*
X55649400Y-49403000D01*
X55638000Y-47091600D02*
X55638000Y-49391600D01*
%TO.N,/QSPI_SS*%
X56694800Y-49377600D02*
X56669400Y-49403000D01*
X59918600Y-49377600D02*
X56694800Y-49377600D01*
X60274200Y-49733200D02*
X59918600Y-49377600D01*
X65381000Y-47395000D02*
X66600000Y-47395000D01*
X65024000Y-47752000D02*
X65381000Y-47395000D01*
X62255400Y-47752000D02*
X65024000Y-47752000D01*
X60274200Y-49733200D02*
X62255400Y-47752000D01*
D37*
X65278000Y-55118000D02*
X66294000Y-56134000D01*
X61976000Y-55118000D02*
X65278000Y-55118000D01*
X60299600Y-53441600D02*
X61976000Y-55118000D01*
X60299600Y-49758600D02*
X60299600Y-53441600D01*
X66294000Y-56134000D02*
X66294000Y-66294000D01*
X60274200Y-49733200D02*
X60299600Y-49758600D01*
D35*
%TO.N,+3V3*%
X65024000Y-45974000D02*
X73434000Y-45974000D01*
X63906400Y-47091600D02*
X65024000Y-45974000D01*
X60988000Y-47091600D02*
X63906400Y-47091600D01*
X60788000Y-47291600D02*
X60988000Y-47091600D01*
X58838000Y-47291600D02*
X60788000Y-47291600D01*
X58638000Y-47091600D02*
X58838000Y-47291600D01*
%TO.N,GND*%
X54138000Y-49159600D02*
X54138000Y-47091600D01*
X54152800Y-49174400D02*
X54138000Y-49159600D01*
D36*
X84275200Y-51421400D02*
X84300000Y-51396600D01*
%TO.N,Net-(J1-PadB5)*%
X85600000Y-53187600D02*
X85295200Y-53492400D01*
X85600000Y-51396600D02*
X85600000Y-53187600D01*
%TO.N,/USB_D-*%
X88100000Y-51396600D02*
X88100000Y-54572000D01*
X88100000Y-50471600D02*
X88100000Y-51396600D01*
X87666400Y-50038000D02*
X88100000Y-50471600D01*
X87100000Y-50517200D02*
X87579200Y-50038000D01*
X87100000Y-51396600D02*
X87100000Y-50517200D01*
X87579200Y-50038000D02*
X87666400Y-50038000D01*
%TO.N,/USB_D+*%
X87600000Y-54132000D02*
X87600000Y-51396600D01*
X87122000Y-54610000D02*
X87600000Y-54132000D01*
X87122000Y-54610000D02*
X86600000Y-54088000D01*
X86600000Y-54088000D02*
X86600000Y-51396600D01*
%TO.N,GND*%
X90700000Y-51396600D02*
X90629200Y-51467400D01*
D35*
X93853000Y-58572400D02*
X93853000Y-61976000D01*
D38*
X90400000Y-51396600D02*
X90700000Y-51396600D01*
D36*
%TO.N,Net-(J1-PadA5)*%
X88600000Y-52483200D02*
X88600000Y-51396600D01*
X89609200Y-53492400D02*
X88600000Y-52483200D01*
%TO.N,VBUS*%
X87182800Y-48590200D02*
X87350600Y-48590200D01*
X85100000Y-50673000D02*
X87182800Y-48590200D01*
D38*
X87503000Y-48590200D02*
X87350600Y-48590200D01*
X89600000Y-50687200D02*
X87503000Y-48590200D01*
X89600000Y-51396600D02*
X89600000Y-50687200D01*
X89600000Y-51396600D02*
X89900000Y-51396600D01*
D36*
X85100000Y-50673000D02*
X85100000Y-51396600D01*
X84800000Y-51396600D02*
X85100000Y-51396600D01*
D38*
%TO.N,GND*%
X84300000Y-51396600D02*
X84000000Y-51396600D01*
D35*
%TO.N,+3V3*%
X73434000Y-47029000D02*
X73800000Y-47395000D01*
X73434000Y-45974000D02*
X73434000Y-47029000D01*
D36*
%TO.N,/ROW_2*%
X87299800Y-108737400D02*
X96062800Y-108737400D01*
X96062800Y-108737400D02*
X98195400Y-106604800D01*
X87299800Y-108737400D02*
X87299800Y-96596200D01*
X74803000Y-108737400D02*
X87299800Y-108737400D01*
X72670400Y-106604800D02*
X74803000Y-108737400D01*
D37*
%TO.N,+3V3*%
X92611000Y-68884800D02*
X92611000Y-68557200D01*
D35*
X97065800Y-69329000D02*
X95783400Y-68046600D01*
X92596378Y-69966222D02*
X92611000Y-69951600D01*
D37*
X88550000Y-68910500D02*
X88550000Y-66452000D01*
D35*
X88138000Y-62331600D02*
X88138000Y-65024000D01*
X106426000Y-69190000D02*
X101485000Y-69190000D01*
D37*
X91387500Y-69748000D02*
X92407400Y-69748000D01*
X92694400Y-73348000D02*
X92710000Y-73332400D01*
D35*
X79679800Y-50139600D02*
X79679800Y-56870600D01*
D37*
X92430600Y-68376800D02*
X91490800Y-68376800D01*
X88150000Y-65036000D02*
X88138000Y-65024000D01*
X92611000Y-68653600D02*
X93218000Y-68046600D01*
D35*
X87172800Y-61366400D02*
X88138000Y-62331600D01*
D37*
X90150000Y-68910500D02*
X90150000Y-68117400D01*
X88150000Y-66052000D02*
X88150000Y-65036000D01*
X90550000Y-68910500D02*
X92585300Y-68910500D01*
D35*
X82550000Y-61366400D02*
X85318600Y-61366400D01*
D37*
X92611000Y-68884800D02*
X92611000Y-69951600D01*
X92407400Y-69748000D02*
X92611000Y-69951600D01*
X83261200Y-74066400D02*
X83030000Y-74066400D01*
D35*
X101346000Y-69329000D02*
X97065800Y-69329000D01*
D37*
X90599200Y-67668200D02*
X91242000Y-67668200D01*
D35*
X79222600Y-49682400D02*
X79679800Y-50139600D01*
D37*
X88550000Y-66452000D02*
X88150000Y-66052000D01*
D35*
X94462600Y-64312800D02*
X95783400Y-65633600D01*
X92596378Y-70726978D02*
X92596378Y-69966222D01*
D37*
X92585300Y-68910500D02*
X92611000Y-68884800D01*
D35*
X93116400Y-72847500D02*
X93116400Y-72926000D01*
D37*
X91490800Y-68376800D02*
X91242000Y-68128000D01*
D35*
X73800000Y-47395000D02*
X76935200Y-47395000D01*
X95783400Y-68046600D02*
X93218000Y-68046600D01*
X76935200Y-47395000D02*
X79222600Y-49682400D01*
D37*
X91242000Y-68128000D02*
X91242000Y-67668200D01*
X90150000Y-68117400D02*
X90599200Y-67668200D01*
X88150000Y-68910500D02*
X88150000Y-66052000D01*
D35*
X106426000Y-62890000D02*
X106426000Y-69190000D01*
X101485000Y-69190000D02*
X101346000Y-69329000D01*
D37*
X83030000Y-73103800D02*
X83159600Y-72974200D01*
X83979600Y-73348000D02*
X83261200Y-74066400D01*
X92611000Y-68884800D02*
X92611000Y-68653600D01*
D35*
X95783400Y-65633600D02*
X95783400Y-68046600D01*
X92990756Y-77089000D02*
X92176600Y-77089000D01*
D37*
X91387500Y-73348000D02*
X92694400Y-73348000D01*
X84512500Y-73348000D02*
X83979600Y-73348000D01*
D35*
X93116400Y-72926000D02*
X92710000Y-73332400D01*
D37*
X92611000Y-68557200D02*
X92430600Y-68376800D01*
D35*
%TO.N,GND*%
X85318600Y-63881000D02*
X86283800Y-63881000D01*
D37*
X86950000Y-75785500D02*
X86950000Y-73348000D01*
D35*
X101346000Y-70879000D02*
X101346000Y-72440800D01*
X87249000Y-64312800D02*
X87249000Y-64953000D01*
X110134000Y-62890000D02*
X108726000Y-62890000D01*
X86283800Y-63881000D02*
X86817200Y-63881000D01*
X93850400Y-70231000D02*
X93571000Y-69951600D01*
X84864000Y-65024000D02*
X84864000Y-64335600D01*
X99276200Y-70879000D02*
X98628200Y-70231000D01*
D37*
X86106000Y-81506000D02*
X86134000Y-81534000D01*
D35*
X101346000Y-70879000D02*
X102095000Y-71628000D01*
X86817200Y-63881000D02*
X87249000Y-64312800D01*
X86283800Y-63881000D02*
X85318600Y-62915800D01*
D37*
X86950000Y-75785500D02*
X86950000Y-76372000D01*
X86950000Y-73348000D02*
X87950000Y-72348000D01*
D35*
X101346000Y-70879000D02*
X99276200Y-70879000D01*
X84864000Y-64335600D02*
X85318600Y-63881000D01*
X109982000Y-71628000D02*
X111506000Y-70104000D01*
X101346000Y-72440800D02*
X101371400Y-72466200D01*
X111506000Y-70104000D02*
X111506000Y-64262000D01*
X87249000Y-64953000D02*
X87178000Y-65024000D01*
X98628200Y-70231000D02*
X93850400Y-70231000D01*
D37*
X86950000Y-76372000D02*
X86106000Y-77216000D01*
D35*
X102095000Y-71628000D02*
X109982000Y-71628000D01*
X111506000Y-64262000D02*
X110134000Y-62890000D01*
D37*
%TO.N,+1V1*%
X87750000Y-68910500D02*
X87750000Y-67510942D01*
X90324678Y-66671566D02*
X91146434Y-66671566D01*
X91125714Y-66576000D02*
X91242000Y-66576000D01*
X86690200Y-65989200D02*
X87045800Y-65989200D01*
X91146434Y-66671566D02*
X91242000Y-66576000D01*
X86459229Y-66220171D02*
X86690200Y-65989200D01*
X89750000Y-67951714D02*
X91125714Y-66576000D01*
X86459229Y-66220171D02*
X85879058Y-65640000D01*
X87750000Y-67510942D02*
X86459229Y-66220171D01*
X85879058Y-65640000D02*
X85824000Y-65640000D01*
X85824000Y-65640000D02*
X85824000Y-65024000D01*
X89750000Y-68910500D02*
X89750000Y-67951714D01*
%TO.N,/XIN*%
X86664800Y-77343000D02*
X87350000Y-76657800D01*
D36*
X87288000Y-88734000D02*
X87038000Y-88734000D01*
X87094000Y-81534000D02*
X87094000Y-84554000D01*
D37*
X86664800Y-80416400D02*
X86664800Y-77343000D01*
D36*
X88138000Y-85598000D02*
X88138000Y-87884000D01*
X87094000Y-84554000D02*
X88138000Y-85598000D01*
D37*
X87350000Y-76657800D02*
X87350000Y-75785500D01*
X87096600Y-81531400D02*
X87096600Y-80848200D01*
X87096600Y-80848200D02*
X86664800Y-80416400D01*
D36*
X88138000Y-87884000D02*
X87288000Y-88734000D01*
D37*
%TO.N,/XOUT*%
X87147400Y-80010000D02*
X88671400Y-81534000D01*
D36*
X89182000Y-81534000D02*
X89238000Y-81590000D01*
D37*
X88671400Y-81534000D02*
X89182000Y-81534000D01*
X87147400Y-77546200D02*
X87147400Y-80010000D01*
D36*
X89238000Y-81590000D02*
X89238000Y-87034000D01*
D37*
X87750000Y-75785500D02*
X87750000Y-76943600D01*
X87750000Y-76943600D02*
X87147400Y-77546200D01*
D36*
%TO.N,/ROW_0*%
X67641200Y-70434200D02*
X64516000Y-70434200D01*
X64516000Y-70434200D02*
X64465200Y-70383400D01*
X98398600Y-54611000D02*
X96215200Y-56794400D01*
X98398600Y-51130200D02*
X98398600Y-54611000D01*
X80173700Y-70242300D02*
X80848200Y-70916800D01*
D37*
X67641200Y-72365600D02*
X67641200Y-70434200D01*
D36*
X94564200Y-62560200D02*
X91922600Y-65201800D01*
D37*
X80441800Y-71323200D02*
X72948800Y-71323200D01*
X80879400Y-70948000D02*
X84512500Y-70948000D01*
D36*
X80173700Y-69346129D02*
X80173700Y-70242300D01*
X110694200Y-51130200D02*
X110795800Y-51231800D01*
D37*
X71602600Y-72669400D02*
X67945000Y-72669400D01*
X72948800Y-71323200D02*
X71602600Y-72669400D01*
X80848200Y-70916800D02*
X80441800Y-71323200D01*
D36*
X94564200Y-61341000D02*
X94564200Y-62560200D01*
D37*
X67945000Y-72669400D02*
X67641200Y-72365600D01*
D36*
X62052200Y-70383400D02*
X60222400Y-70383400D01*
X98398600Y-51130200D02*
X110694200Y-51130200D01*
X96215200Y-56794400D02*
X94564200Y-58445400D01*
D37*
X80848200Y-70916800D02*
X80879400Y-70948000D01*
D36*
X94564200Y-58445400D02*
X94564200Y-61341000D01*
%TO.N,Net-(D1-Pad2)*%
X114095800Y-51231800D02*
X114095800Y-54560200D01*
X114095800Y-54560200D02*
X114046000Y-54610000D01*
%TO.N,Net-(D2-Pad2)*%
X95098600Y-51130200D02*
X95098600Y-54507400D01*
X95098600Y-54507400D02*
X94996000Y-54610000D01*
%TO.N,Net-(D3-Pad2)*%
X75946000Y-63728600D02*
X75946000Y-54610000D01*
X76733400Y-70434200D02*
X77292200Y-69875400D01*
X77292200Y-65074800D02*
X75946000Y-63728600D01*
X70941200Y-70434200D02*
X76733400Y-70434200D01*
D37*
%TO.N,/ROW_1*%
X84912200Y-77622400D02*
X84861400Y-77673200D01*
D36*
X96799400Y-89763600D02*
X98297000Y-88266000D01*
D37*
X83591400Y-81432400D02*
X83591400Y-91770200D01*
X84861400Y-80162400D02*
X83845400Y-81178400D01*
D36*
X64160400Y-87299800D02*
X66497200Y-89636600D01*
X92557600Y-89763600D02*
X96799400Y-89763600D01*
X78180200Y-89636600D02*
X79196200Y-88620600D01*
D37*
X83845400Y-81178400D02*
X83591400Y-81432400D01*
D36*
X79196200Y-88620600D02*
X79196200Y-87249000D01*
X66497200Y-89636600D02*
X78180200Y-89636600D01*
X90551000Y-91770200D02*
X92557600Y-89763600D01*
D37*
X85350000Y-75785500D02*
X85350000Y-77184600D01*
D36*
X80797400Y-87782400D02*
X80797400Y-91770200D01*
X102489000Y-87503000D02*
X110719600Y-87503000D01*
X62217300Y-87287100D02*
X62153800Y-87223600D01*
X98297000Y-87503000D02*
X100253800Y-87503000D01*
X62153800Y-87223600D02*
X60171600Y-87223600D01*
X80264000Y-87249000D02*
X80797400Y-87782400D01*
X98297000Y-88266000D02*
X98297000Y-87503000D01*
D37*
X85350000Y-77184600D02*
X84912200Y-77622400D01*
X84861400Y-77673200D02*
X84861400Y-79984600D01*
D36*
X83591400Y-91770200D02*
X90551000Y-91770200D01*
X79196200Y-87249000D02*
X80264000Y-87249000D01*
D37*
X84861400Y-79984600D02*
X84861400Y-80162400D01*
D36*
%TO.N,Net-(D5-Pad2)*%
X114046000Y-87476600D02*
X114019600Y-87503000D01*
X114046000Y-73660000D02*
X114046000Y-87476600D01*
%TO.N,Net-(D6-Pad2)*%
X94996000Y-87502000D02*
X94997000Y-87503000D01*
X94996000Y-73660000D02*
X94996000Y-87502000D01*
%TO.N,/ROW_2*%
X98195400Y-106604800D02*
X98195400Y-106603800D01*
X60197000Y-106527600D02*
X72594200Y-106527600D01*
D37*
X94183200Y-80213200D02*
X94183200Y-77292200D01*
D36*
X72670400Y-106603800D02*
X72670400Y-106604800D01*
X87299800Y-96596200D02*
X92506800Y-91389200D01*
D37*
X94183200Y-77292200D02*
X91839000Y-74948000D01*
X91839000Y-74948000D02*
X91387500Y-74948000D01*
X92506800Y-88874600D02*
X92506800Y-88773000D01*
D36*
X72594200Y-106527600D02*
X72670400Y-106603800D01*
X98195400Y-106603800D02*
X110719600Y-106603800D01*
D37*
X92506800Y-88773000D02*
X92506800Y-81889600D01*
X92506800Y-81889600D02*
X94183200Y-80213200D01*
D36*
%TO.N,Net-(D7-Pad2)*%
X75946000Y-87199200D02*
X75896200Y-87249000D01*
X75946000Y-73660000D02*
X75946000Y-87199200D01*
%TO.N,Net-(D9-Pad2)*%
X114046000Y-106577400D02*
X114019600Y-106603800D01*
X114046000Y-92710000D02*
X114046000Y-106577400D01*
D39*
%TO.N,/USB_D+*%
X89174000Y-64563000D02*
X89174000Y-58186000D01*
X89174000Y-58186000D02*
X87122000Y-56134000D01*
X87122000Y-56134000D02*
X87122000Y-54610000D01*
%TO.N,/USB_D-*%
X88122000Y-55356000D02*
X88122000Y-54670660D01*
X90424000Y-64563000D02*
X90424000Y-57658000D01*
X90424000Y-57658000D02*
X88122000Y-55356000D01*
D37*
%TO.N,Net-(R1-Pad1)*%
X88950000Y-68910500D02*
X88950000Y-67260000D01*
X89174000Y-67036000D02*
X89174000Y-65583000D01*
X88950000Y-67260000D02*
X89174000Y-67036000D01*
%TO.N,Net-(R2-Pad1)*%
X89350000Y-68910500D02*
X89350000Y-67495000D01*
X89350000Y-67495000D02*
X89585800Y-67259200D01*
X89585800Y-66421200D02*
X90424000Y-65583000D01*
X89585800Y-67259200D02*
X89585800Y-66421200D01*
%TO.N,Net-(R3-Pad2)*%
X89750000Y-76338800D02*
X90144600Y-76733400D01*
X90144600Y-76733400D02*
X90801000Y-76733400D01*
X89750000Y-75785500D02*
X89750000Y-76338800D01*
X90801000Y-76733400D02*
X91156600Y-77089000D01*
%TO.N,/QSPI_SS*%
X68632400Y-68605400D02*
X66294000Y-66267000D01*
X85044900Y-68605400D02*
X68632400Y-68605400D01*
X85350000Y-68910500D02*
X85044900Y-68605400D01*
%TO.N,/COL_0*%
X97840800Y-70942200D02*
X100545900Y-73647300D01*
D36*
X120396000Y-79253001D02*
X120396000Y-95250000D01*
D37*
X110705900Y-73647300D02*
X113360200Y-70993000D01*
X91387500Y-71748000D02*
X92564600Y-71748000D01*
X93370400Y-70942200D02*
X97840800Y-70942200D01*
X113360200Y-70993000D02*
X115189000Y-70993000D01*
D36*
X120390999Y-57155001D02*
X120390999Y-76194999D01*
X120396000Y-57150000D02*
X120390999Y-57155001D01*
D37*
X115189000Y-70993000D02*
X120396000Y-76200000D01*
D36*
X120390999Y-79248000D02*
X120396000Y-79253001D01*
D37*
X100545900Y-73647300D02*
X110705900Y-73647300D01*
X92564600Y-71748000D02*
X93370400Y-70942200D01*
D36*
X120390999Y-76194999D02*
X120396000Y-76200000D01*
X120396000Y-76200000D02*
X120390999Y-76205001D01*
X120390999Y-76205001D02*
X120390999Y-79248000D01*
%TO.N,/COL_1*%
X100634800Y-58623200D02*
X100584000Y-58674000D01*
X100584000Y-65989200D02*
X100584000Y-66497200D01*
X101346000Y-57150000D02*
X101346000Y-57912000D01*
X101346000Y-57912000D02*
X100634800Y-58623200D01*
X100584000Y-58674000D02*
X100584000Y-65989200D01*
X100584000Y-66497200D02*
X98907600Y-68173600D01*
X101346000Y-76200000D02*
X101340999Y-76205001D01*
X101340999Y-95244999D02*
X101346000Y-95250000D01*
X101340999Y-76205001D02*
X101340999Y-95244999D01*
%TO.N,/COL_2*%
X82296000Y-76200000D02*
X82290999Y-76205001D01*
X82290999Y-76205001D02*
X82290999Y-95244999D01*
X79552800Y-73660000D02*
X79171800Y-73660000D01*
D37*
X80238600Y-72974200D02*
X82067400Y-72974200D01*
X79552800Y-75082400D02*
X80670400Y-76200000D01*
D36*
X82290999Y-95244999D02*
X82296000Y-95250000D01*
D37*
X83293600Y-71748000D02*
X84512500Y-71748000D01*
X80670400Y-76200000D02*
X82296000Y-76200000D01*
X82067400Y-72974200D02*
X83293600Y-71748000D01*
D36*
X79171800Y-73660000D02*
X78486000Y-72974200D01*
X81432400Y-58013600D02*
X81432400Y-64947800D01*
X82296000Y-57150000D02*
X81432400Y-58013600D01*
D37*
X79552800Y-73660000D02*
X80238600Y-72974200D01*
X79552800Y-73660000D02*
X79552800Y-75082400D01*
%TO.N,/QSPI_SD3*%
X72136000Y-63246000D02*
X72136000Y-53340000D01*
X74930000Y-66040000D02*
X72136000Y-63246000D01*
X87350000Y-68910500D02*
X87350000Y-67676628D01*
X72390000Y-53086000D02*
X75184000Y-53086000D01*
X85713372Y-66040000D02*
X74930000Y-66040000D01*
X75184000Y-53086000D02*
X76708000Y-51562000D01*
X76097000Y-48665000D02*
X73800000Y-48665000D01*
X76708000Y-51562000D02*
X76708000Y-49276000D01*
X76708000Y-49276000D02*
X76097000Y-48665000D01*
X87350000Y-67676628D02*
X85713372Y-66040000D01*
X72136000Y-53340000D02*
X72390000Y-53086000D01*
%TO.N,/QSPI_SCLK*%
X75692000Y-51562000D02*
X75692000Y-50546000D01*
X73406000Y-66548000D02*
X71120000Y-64262000D01*
X86950000Y-68910500D02*
X86950000Y-67842314D01*
X85655686Y-66548000D02*
X73406000Y-66548000D01*
X71120000Y-56642000D02*
X71120000Y-54356000D01*
X74676000Y-52578000D02*
X75692000Y-51562000D01*
X71120000Y-53340000D02*
X71882000Y-52578000D01*
X71120000Y-54356000D02*
X71120000Y-53340000D01*
X71120000Y-64262000D02*
X71120000Y-56642000D01*
X71882000Y-52578000D02*
X74676000Y-52578000D01*
X86950000Y-67842314D02*
X85655686Y-66548000D01*
X75692000Y-50546000D02*
X75081000Y-49935000D01*
X75081000Y-49935000D02*
X73800000Y-49935000D01*
%TO.N,/QSPI_SD0*%
X86550000Y-68910500D02*
X86550000Y-68008000D01*
X85852000Y-67310000D02*
X85598000Y-67056000D01*
X85598000Y-67056000D02*
X72136000Y-67056000D01*
X69850000Y-52832000D02*
X69850000Y-64770000D01*
X69850000Y-64770000D02*
X72136000Y-67056000D01*
X86550000Y-68008000D02*
X85852000Y-67310000D01*
X71477000Y-51205000D02*
X69850000Y-52832000D01*
X73800000Y-51205000D02*
X71477000Y-51205000D01*
%TO.N,/QSPI_SD2*%
X62475000Y-50675000D02*
X63215000Y-49935000D01*
X71329000Y-67773000D02*
X68834000Y-65278000D01*
X63246000Y-53086000D02*
X62475000Y-52315000D01*
X85712685Y-67773000D02*
X71329000Y-67773000D01*
X86150000Y-68210315D02*
X85712685Y-67773000D01*
X68834000Y-65278000D02*
X68834000Y-54102000D01*
X63215000Y-49935000D02*
X66600000Y-49935000D01*
X86150000Y-68910500D02*
X86150000Y-68210315D01*
X68834000Y-54102000D02*
X67818000Y-53086000D01*
X62475000Y-52315000D02*
X62475000Y-50675000D01*
X67818000Y-53086000D02*
X63246000Y-53086000D01*
%TO.N,/QSPI_SD1*%
X85700000Y-68326000D02*
X85547000Y-68173000D01*
X61375000Y-49675000D02*
X61375000Y-52600000D01*
X85750000Y-68910500D02*
X85750000Y-68378025D01*
X66294000Y-53848000D02*
X67550000Y-55104000D01*
X62385000Y-48665000D02*
X61375000Y-49675000D01*
X62623000Y-53848000D02*
X66294000Y-53848000D01*
X70200000Y-68173000D02*
X67550000Y-65523000D01*
X61375000Y-52600000D02*
X62623000Y-53848000D01*
X85700000Y-68328025D02*
X85700000Y-68326000D01*
X67550000Y-55104000D02*
X67550000Y-65532000D01*
X66600000Y-48665000D02*
X62385000Y-48665000D01*
X85547000Y-68173000D02*
X70200000Y-68173000D01*
X85750000Y-68378025D02*
X85700000Y-68328025D01*
D36*
%TO.N,Net-(D4-Pad2)*%
X56896000Y-70357000D02*
X56922400Y-70383400D01*
X56896000Y-54610000D02*
X56896000Y-70357000D01*
%TO.N,Net-(D8-Pad2)*%
X56896000Y-87199200D02*
X56871600Y-87223600D01*
X56896000Y-73660000D02*
X56896000Y-87199200D01*
%TO.N,Net-(D10-Pad2)*%
X94996000Y-92710000D02*
X94996000Y-106503200D01*
X94996000Y-106503200D02*
X94895400Y-106603800D01*
%TO.N,Net-(D11-Pad2)*%
X75946000Y-106579400D02*
X75970400Y-106603800D01*
X75946000Y-92710000D02*
X75946000Y-106579400D01*
%TO.N,Net-(D12-Pad2)*%
X56896000Y-92710000D02*
X56896000Y-106526600D01*
X56896000Y-106526600D02*
X56897000Y-106527600D01*
D37*
%TO.N,/COL_3*%
X84512500Y-71348000D02*
X82398200Y-71348000D01*
D36*
X63240999Y-62478999D02*
X63246000Y-62484000D01*
X63240999Y-81020999D02*
X63246000Y-81026000D01*
D37*
X81864200Y-71882000D02*
X74371200Y-71882000D01*
D36*
X63246000Y-76200000D02*
X63240999Y-76205001D01*
D37*
X74371200Y-71882000D02*
X70053200Y-76200000D01*
D36*
X63240999Y-76205001D02*
X63240999Y-81020999D01*
D37*
X70053200Y-76200000D02*
X63246000Y-76200000D01*
D36*
X63246000Y-57150000D02*
X63240999Y-57155001D01*
X63246000Y-62484000D02*
X63246000Y-76200000D01*
X63240999Y-57155001D02*
X63240999Y-62478999D01*
X63246000Y-81026000D02*
X63246000Y-95250000D01*
D37*
X82398200Y-71348000D02*
X81864200Y-71882000D01*
%TD*%
%TA.AperFunction,Conductor*%
%TO.N,VBUS*%
G36*
X106445239Y-59455685D02*
G01*
X106490994Y-59508489D01*
X106502200Y-59560000D01*
X106502200Y-61013800D01*
X106482515Y-61080839D01*
X106429711Y-61126594D01*
X106378200Y-61137800D01*
X104851200Y-61137800D01*
X104851200Y-64035102D01*
X104831515Y-64102141D01*
X104778711Y-64147896D01*
X104725909Y-64159095D01*
X102532978Y-64136252D01*
X102466148Y-64115870D01*
X102420945Y-64062593D01*
X102410297Y-64014842D01*
X102363191Y-61753785D01*
X102381475Y-61686350D01*
X102404723Y-61658577D01*
X104024479Y-60216994D01*
X104866751Y-59467372D01*
X104929917Y-59437507D01*
X104949190Y-59436000D01*
X106378200Y-59436000D01*
X106445239Y-59455685D01*
G37*
%TD.AperFunction*%
%TD*%
%TA.AperFunction,Conductor*%
%TO.N,+3V3*%
G36*
X107310658Y-61919485D02*
G01*
X107356413Y-61972289D01*
X107367605Y-62021968D01*
X107403462Y-64448284D01*
X107442000Y-67056000D01*
X109893632Y-67791490D01*
X109952187Y-67829607D01*
X109980839Y-67893331D01*
X109982000Y-67910259D01*
X109982000Y-70488000D01*
X109962315Y-70555039D01*
X109909511Y-70600794D01*
X109858000Y-70612000D01*
X102907544Y-70612000D01*
X102838761Y-70591174D01*
X102123277Y-70114185D01*
X102123278Y-70114185D01*
X102108000Y-70104000D01*
X100454000Y-70104000D01*
X100386961Y-70084315D01*
X100341206Y-70031511D01*
X100330000Y-69980000D01*
X100330000Y-68425574D01*
X100349685Y-68358535D01*
X100402489Y-68312780D01*
X100427224Y-68304499D01*
X105595793Y-67161450D01*
X105595794Y-67161449D01*
X105613200Y-67157600D01*
X105613200Y-62023800D01*
X105632885Y-61956761D01*
X105685689Y-61911006D01*
X105737200Y-61899800D01*
X107243619Y-61899800D01*
X107310658Y-61919485D01*
G37*
%TD.AperFunction*%
%TD*%
%TA.AperFunction,Conductor*%
%TO.N,GND*%
G36*
X109439897Y-59430285D02*
G01*
X109483180Y-59477987D01*
X109891528Y-60273742D01*
X110334927Y-61137800D01*
X110425522Y-61314345D01*
X110439200Y-61370958D01*
X110439200Y-64036400D01*
X110419515Y-64103439D01*
X110366711Y-64149194D01*
X110315200Y-64160400D01*
X107896200Y-64160400D01*
X107829161Y-64140715D01*
X107783406Y-64087911D01*
X107772200Y-64036400D01*
X107772200Y-61671200D01*
X107569000Y-61137800D01*
X106981800Y-61137800D01*
X106914761Y-61118115D01*
X106869006Y-61065311D01*
X106857800Y-61013800D01*
X106857800Y-59534600D01*
X106877485Y-59467561D01*
X106930289Y-59421806D01*
X106981800Y-59410600D01*
X109372858Y-59410600D01*
X109439897Y-59430285D01*
G37*
%TD.AperFunction*%
%TD*%
M02*
