%TF.GenerationSoftware,KiCad,Pcbnew,(6.0.10)*%
%TF.CreationDate,2023-01-10T16:59:13+01:00*%
%TF.ProjectId,rp2040_keyboard,72703230-3430-45f6-9b65-79626f617264,rev?*%
%TF.SameCoordinates,Original*%
%TF.FileFunction,Soldermask,Bot*%
%TF.FilePolarity,Negative*%
%FSLAX46Y46*%
G04 Gerber Fmt 4.6, Leading zero omitted, Abs format (unit mm)*
G04 Created by KiCad (PCBNEW (6.0.10)) date 2023-01-10 16:59:13*
%MOMM*%
%LPD*%
G01*
G04 APERTURE LIST*
%ADD10C,1.750000*%
%ADD11C,4.000000*%
%ADD12C,1.550000*%
%ADD13C,0.900000*%
%ADD14C,2.700000*%
%ADD15C,0.650000*%
%ADD16O,1.000000X2.100000*%
%ADD17O,1.000000X1.600000*%
G04 APERTURE END LIST*
D10*
%TO.C,SW1*%
X111506000Y-59690000D03*
D11*
X116586000Y-59690000D03*
D10*
X121666000Y-59690000D03*
D12*
X120396000Y-57150000D03*
X114046000Y-54610000D03*
%TD*%
D13*
%TO.C,SW13*%
X57888000Y-45331600D03*
X54888000Y-45331600D03*
%TD*%
D14*
%TO.C,H4*%
X48768000Y-109829600D03*
%TD*%
%TO.C,H3*%
X127508000Y-109829600D03*
%TD*%
%TO.C,H2*%
X127508000Y-47167800D03*
%TD*%
%TO.C,H1*%
X48869600Y-47244000D03*
%TD*%
D15*
%TO.C,J1*%
X90240000Y-50331600D03*
X84460000Y-50331600D03*
D16*
X91670000Y-50831600D03*
D17*
X83030000Y-46651600D03*
D16*
X83030000Y-50831600D03*
D17*
X91670000Y-46651600D03*
%TD*%
D12*
%TO.C,SW7*%
X82296000Y-76200000D03*
D11*
X78486000Y-78740000D03*
D12*
X75946000Y-73660000D03*
D10*
X73406000Y-78740000D03*
X83566000Y-78740000D03*
%TD*%
%TO.C,SW5*%
X121666000Y-78740000D03*
D11*
X116586000Y-78740000D03*
D12*
X120396000Y-76200000D03*
D10*
X111506000Y-78740000D03*
D12*
X114046000Y-73660000D03*
%TD*%
%TO.C,SW2*%
X101346000Y-57150000D03*
X94996000Y-54610000D03*
D11*
X97536000Y-59690000D03*
D10*
X92456000Y-59690000D03*
X102616000Y-59690000D03*
%TD*%
D12*
%TO.C,SW6*%
X101346000Y-76200000D03*
D10*
X102616000Y-78740000D03*
D11*
X97536000Y-78740000D03*
D10*
X92456000Y-78740000D03*
D12*
X94996000Y-73660000D03*
%TD*%
%TO.C,SW10*%
X101346000Y-95250000D03*
D10*
X92456000Y-97790000D03*
D12*
X94996000Y-92710000D03*
D11*
X97536000Y-97790000D03*
D10*
X102616000Y-97790000D03*
%TD*%
D12*
%TO.C,SW8*%
X56896000Y-73660000D03*
D11*
X59436000Y-78740000D03*
D10*
X54356000Y-78740000D03*
X64516000Y-78740000D03*
D12*
X63246000Y-76200000D03*
%TD*%
D10*
%TO.C,SW11*%
X83566000Y-97790000D03*
X73406000Y-97790000D03*
D12*
X75946000Y-92710000D03*
X82296000Y-95250000D03*
D11*
X78486000Y-97790000D03*
%TD*%
D10*
%TO.C,SW9*%
X121666000Y-97790000D03*
X111506000Y-97790000D03*
D12*
X114046000Y-92710000D03*
X120396000Y-95250000D03*
D11*
X116586000Y-97790000D03*
%TD*%
D10*
%TO.C,SW12*%
X54356000Y-97790000D03*
X64516000Y-97790000D03*
D11*
X59436000Y-97790000D03*
D12*
X63246000Y-95250000D03*
X56896000Y-92710000D03*
%TD*%
D10*
%TO.C,SW4*%
X54356000Y-59690000D03*
D11*
X59436000Y-59690000D03*
D12*
X63246000Y-57150000D03*
X56896000Y-54610000D03*
D10*
X64516000Y-59690000D03*
%TD*%
%TO.C,SW3*%
X83566000Y-59690000D03*
D11*
X78486000Y-59690000D03*
D12*
X75946000Y-54610000D03*
X82296000Y-57150000D03*
D10*
X73406000Y-59690000D03*
%TD*%
M02*
